<svg xmlns="http://www.w3.org/2000/svg" xmlns:xlink="http://www.w3.org/1999/xlink" width="2774.575" height="465.586" viewBox="0 0 2774.575 465.586">
  <defs>
    <clipPath id="clip-path">
      <rect id="Rectangle_1102" data-name="Rectangle 1102" width="433.075" height="113.539"/>
    </clipPath>
    <clipPath id="clip-path-2">
      <rect id="Rectangle_1111" data-name="Rectangle 1111" width="454.074" height="113.539"/>
    </clipPath>
    <clipPath id="clip-path-3">
      <rect id="Rectangle_1114" data-name="Rectangle 1114" width="485.269" height="53.288"/>
    </clipPath>
  </defs>
  <g id="Group_702" data-name="Group 702" transform="translate(-3967.216 -1488.194)">
    <g id="Group_691" data-name="Group 691" transform="translate(3967.216 1488.194)">
      <g id="Group_690" data-name="Group 690" transform="translate(0 352.047)" style="mix-blend-mode: normal;isolation: isolate">
        <g id="Group_689" data-name="Group 689">
          <g id="Group_688" data-name="Group 688" clip-path="url(#clip-path)">
            <text id="Kids_Friendly_" data-name="Kids Friendly " transform="translate(57.23 41.042)" font-size="49" font-family="Quicksand-Regular, Quicksand"><tspan x="0" y="0">Kids </tspan><tspan y="0" letter-spacing="-0.008em">F</tspan><tspan y="0">riend</tspan><tspan y="0" letter-spacing="-0.015em">l</tspan><tspan y="0">y </tspan></text>
            <text id="Hands_on_Projects" data-name="Hands on Projects" transform="translate(-0.032 101.317)" font-size="49" font-family="Quicksand-Regular, Quicksand"><tspan x="0" y="0">Hands on P</tspan><tspan y="0" letter-spacing="-0.022em">r</tspan><tspan y="0">ojec</tspan><tspan y="0" letter-spacing="0.019em">t</tspan><tspan y="0">s</tspan></text>
          </g>
        </g>
      </g>
      <path id="Path_1351" data-name="Path 1351" d="M4057.025,1488.934h31.068a19.32,19.32,0,0,1,17.721,11.646l1.987,4.582h9.373a28.8,28.8,0,0,1,28.8,28.8v105.9a20.452,20.452,0,0,1-20.454,20.448H4022.2a20.449,20.449,0,0,1-20.455-20.448v-95.647a55.284,55.284,0,0,1,55.282-55.283" transform="translate(-3783.23 -1484.251)" fill="#475d6d"/>
      <path id="Path_1352" data-name="Path 1352" d="M4058.018,1505.168h-9.374l-1.986-4.595a19.308,19.308,0,0,0-17.721-11.639h-16.093a19.325,19.325,0,0,1,17.727,11.639l1.981,4.595h9.378a28.8,28.8,0,0,1,28.8,28.8v105.894a20.458,20.458,0,0,1-20.454,20.454h16.086a20.455,20.455,0,0,0,20.455-20.454V1533.964a28.794,28.794,0,0,0-28.8-28.8" transform="translate(-3724.074 -1484.251)" fill="#2c3f4f"/>
      <path id="Path_1353" data-name="Path 1353" d="M4095.6,1503.755l-58.917-14.019a18.623,18.623,0,0,0-17.455,4.943l-16.752,16.759h-7.1a18.59,18.59,0,0,0-18.6,18.588s-.936,22.822,0,30.346c1.115,8.943,8.85,34.948,8.85,34.948h125.66l23.548-93.191a5.155,5.155,0,0,0-8.21-5.29,36.322,36.322,0,0,1-31.028,6.917" transform="translate(-3918.458 -1482.649)" fill="#f9dc6a"/>
      <path id="Path_1354" data-name="Path 1354" d="M4026.682,1491.4h0a36.307,36.307,0,0,1-7.922,4.784c-.032.164-.044.336-.089.506l-23.548,93.192h16.221l23.542-93.192a5.15,5.15,0,0,0-8.2-5.29" transform="translate(-3818.511 -1477.208)" fill="#e5ac51"/>
      <path id="Path_1355" data-name="Path 1355" d="M4228.457,1518.539h-249.23v37.626h169v58.561h113.724v-62.693a33.486,33.486,0,0,0-33.491-33.493" transform="translate(-3903.213 -1326.491)" fill="#2bb4f3"/>
      <path id="Path_1356" data-name="Path 1356" d="M4030.677,1518.539h-14.336a33.487,33.487,0,0,1,33.494,33.493v62.693h14.333v-62.693a33.485,33.485,0,0,0-33.491-33.493" transform="translate(-3705.433 -1326.491)" fill="#1687c4"/>
      <path id="Path_1357" data-name="Path 1357" d="M4116.129,1556.171v-4.138a33.49,33.49,0,0,0-33.493-33.493H4013.4a33.49,33.49,0,0,0-33.494,33.493v4.138Z" transform="translate(-3899.59 -1326.491)" fill="#1687c4"/>
      <path id="Path_1358" data-name="Path 1358" d="M4009.949,1513.221V1553.9c0,11.145,20.175,22.391,20.175,22.391s20.184-11.246,20.184-22.391v-40.676Z" transform="translate(-3739.501 -1354.829)" fill="#f2a077"/>
      <path id="Path_1359" data-name="Path 1359" d="M4143.019,1562.016v5.943a12.553,12.553,0,0,1-12.55,12.563H4126.2c-1.7,32.77-32.094,55.523-61.909,50.332h0a53.785,53.785,0,0,1-45.478-50.332h-4.267a12.56,12.56,0,0,1-12.556-12.563v-5.943a12.554,12.554,0,0,1,12.556-12.556h4.183v-27.264c0-.727.015-1.449.051-2.164a120.464,120.464,0,0,0,87.231-16.582,117.2,117.2,0,0,0,11.734-8.5,47.62,47.62,0,0,1,8.532,27.246v27.264h4.188a12.547,12.547,0,0,1,12.55,12.556" transform="translate(-3781.886 -1452.198)" fill="#fca"/>
      <path id="Path_1360" data-name="Path 1360" d="M4078.012,1549.454h-4.187v-11.133h-.006c0-18.474,0-17.024-.006-17.283a47.6,47.6,0,0,0-8.515-26.088,118.773,118.773,0,0,1-11.733,8.493,47.811,47.811,0,0,1,3.816,18.747v27.264l-.082,31.062a53.789,53.789,0,0,1-45.46,50.333c27.208,4.735,54.89-13.8,60.82-41.972h.006q.417-2.012.7-4.082l.012-.133c.076-.576.14-1.171.2-1.76.018-.146.03-.3.044-.443.055-.645.105-1.291.138-1.942h4.259a12.554,12.554,0,0,0,12.558-12.556v-5.949a12.562,12.562,0,0,0-12.558-12.556" transform="translate(-3729.429 -1452.193)" fill="#f2a077"/>
      <path id="Path_1361" data-name="Path 1361" d="M4113.216,1614.725H3977v-62.693a33.488,33.488,0,0,1,33.491-33.493h69.238a33.494,33.494,0,0,1,33.491,33.493Z" transform="translate(-3915.108 -1326.491)" fill="#ff5a59"/>
      <path id="Path_1362" data-name="Path 1362" d="M4005.3,1518.539h-14.335a33.486,33.486,0,0,1,33.491,33.493v62.693h14.335v-62.693a33.486,33.486,0,0,0-33.491-33.493" transform="translate(-3840.681 -1326.491)" fill="#ce3a4c"/>
      <path id="Path_1363" data-name="Path 1363" d="M3984.569,1513.221V1553.9a20.179,20.179,0,1,0,40.357,0v-40.676Z" transform="translate(-3874.747 -1354.829)" fill="#f2a077"/>
      <path id="Path_1364" data-name="Path 1364" d="M4117.642,1549.285v5.943a12.564,12.564,0,0,1-12.557,12.563h-4.264a53.683,53.683,0,0,1-9.2,27.385l-.015.012c-10.117,15.57-30.952,26.22-52.691,22.935h-.006a53.8,53.8,0,0,1-45.48-50.332h-4.258a12.555,12.555,0,0,1-12.552-12.563v-5.943a12.549,12.549,0,0,1,12.552-12.556h4.189v-19.772c14.423-.974,19.089-5.4,19.089-19.619,0,0,18.352,32.695,72,22.948a141.5,141.5,0,0,0,16.454-4.051v20.494h4.183a12.558,12.558,0,0,1,12.557,12.556" transform="translate(-3917.127 -1439.467)" fill="#fca"/>
      <path id="Path_1365" data-name="Path 1365" d="M4052.632,1520.812h-4.183v-20.487A142.63,142.63,0,0,1,4032,1504.37v16.442l-.082,31.062a53.789,53.789,0,0,1-45.46,50.333c21.734,3.285,42.61-7.423,52.7-22.935l.008-.012c3.248-4.133,6.722-11.905,8.335-20.43h.031c.292-1.557.512-3.145.666-4.746l.018-.183c.069-.678.12-1.349.158-2.026h4.258a12.555,12.555,0,0,0,12.558-12.556v-5.949a12.559,12.559,0,0,0-12.558-12.556" transform="translate(-3864.676 -1423.55)" fill="#f2a077"/>
      <path id="Path_1366" data-name="Path 1366" d="M3998.57,1566.467h-11.411a11.676,11.676,0,0,1-11.67-11.677V1529.3a11.676,11.676,0,0,1,11.67-11.678h11.411a8.58,8.58,0,0,1,8.576,8.583v31.682a8.577,8.577,0,0,1-8.576,8.575" transform="translate(-3923.132 -1331.351)" fill="#fca"/>
      <path id="Path_1367" data-name="Path 1367" d="M4009.549,1514.417a26.474,26.474,0,0,0,49.049.006,4.684,4.684,0,1,0-8.683-3.518,17.1,17.1,0,0,1-31.675.006,4.686,4.686,0,0,0-8.691,3.506" transform="translate(-3743.449 -1382.764)"/>
      <path id="Path_1368" data-name="Path 1368" d="M4012.828,1514.93a4.685,4.685,0,0,0,4.683-4.683v-2.595a4.683,4.683,0,1,0-9.367,0v2.595a4.686,4.686,0,0,0,4.684,4.683" transform="translate(-3749.119 -1409.497)"/>
      <path id="Path_1369" data-name="Path 1369" d="M4021.337,1514.93a4.685,4.685,0,0,0,4.683-4.683v-2.595a4.685,4.685,0,1,0-9.369,0v2.595a4.687,4.687,0,0,0,4.687,4.683" transform="translate(-3703.788 -1409.497)"/>
      <path id="Path_1370" data-name="Path 1370" d="M4008.694,1530.925a26.354,26.354,0,0,0,24.524-16.5,4.689,4.689,0,0,0-8.689-3.525,17.093,17.093,0,0,1-31.67.013,4.685,4.685,0,0,0-8.688,3.506,26.463,26.463,0,0,0,24.524,16.506" transform="translate(-3878.695 -1382.766)"/>
      <path id="Path_1371" data-name="Path 1371" d="M3992.13,1510.241v-2.595a4.683,4.683,0,1,0-9.367,0v2.595a4.683,4.683,0,1,0,9.367,0" transform="translate(-3884.371 -1409.492)"/>
      <path id="Path_1372" data-name="Path 1372" d="M3995.954,1514.93a4.685,4.685,0,0,0,4.683-4.683v-2.595a4.683,4.683,0,1,0-9.367,0v2.595a4.686,4.686,0,0,0,4.684,4.683" transform="translate(-3839.038 -1409.497)"/>
      <path id="Path_1373" data-name="Path 1373" d="M4289.816,1555.591a4.685,4.685,0,0,0,4.683-4.684v-13a33.516,33.516,0,0,0-33.479-33.479h-6.3l-.761-1.766a23.983,23.983,0,0,0-22.024-14.469h-31.074a60.033,60.033,0,0,0-59.966,59.966V1643.8a25.176,25.176,0,0,0,25.145,25.151h26.79v6.613h-110.9v-8.943a58.513,58.513,0,0,0,33.114-45.415,17.271,17.271,0,0,0,17.231-17.246v-5.943a17.137,17.137,0,0,0-4.031-11.051l10.779-42.669a4.684,4.684,0,0,0-9.082-2.3l-9.974,39.5a17.391,17.391,0,0,0-4.431-.722v-15.8a4.694,4.694,0,0,0-6.062-4.48c-25.671,7.873-48.164,7.462-65.054-1.2-12.651-6.494-17.906-15.443-17.942-15.506a4.679,4.679,0,0,0-8.766,2.29c0,11.6-2.48,14.113-14.727,14.936a4.691,4.691,0,0,0-4.366,4.677v15.088a17.246,17.246,0,0,0-4.906.867,154.854,154.854,0,0,1-3.671-16.3c-.727-5.867-.22-23.341.032-29.581l.008-.19a13.925,13.925,0,0,1,13.909-13.91h7.093a4.711,4.711,0,0,0,3.317-1.368l16.752-16.758a14,14,0,0,1,13.063-3.7l58.915,14.012a40.926,40.926,0,0,0,35.03-7.81.4.4,0,0,1,.551-.025.391.391,0,0,1,.2.506l-3.544,14.037a4.684,4.684,0,0,0,9.083,2.3l3.544-14.043a9.837,9.837,0,0,0-15.665-10.1,31.74,31.74,0,0,1-19.708,6.885,32.082,32.082,0,0,1-7.323-.854l-58.906-14.018a23.44,23.44,0,0,0-21.855,6.183l-15.385,15.385h-5.157a23.314,23.314,0,0,0-23.284,23.176c-.069,1.817-.912,23.366.038,31.017.481,3.886,2.1,10.9,4.811,20.891a17.17,17.17,0,0,0-3.678,10.634v5.943a17.264,17.264,0,0,0,17.213,17.246,58.413,58.413,0,0,0,33.12,45.415v8.943h-9.759a38.524,38.524,0,0,0-8.423.931,13.264,13.264,0,0,0-11.514-6.7h-11.411a16.376,16.376,0,0,0-16.359,16.355v25.479a16.385,16.385,0,0,0,9.529,14.866v49.921a4.684,4.684,0,0,0,4.686,4.689h136.227a4.682,4.682,0,0,0,4.683-4.689v-62.68a38.1,38.1,0,0,0-13.17-28.816h76.13v2.342c0,13.505,20.285,25.2,22.594,26.486a4.66,4.66,0,0,0,4.556,0c2.31-1.291,22.58-12.981,22.58-26.486v-2.342h9.754a28.845,28.845,0,0,1,28.815,28.816v58H4268v-31.384a4.683,4.683,0,1,0-9.367,0v31.384h-81.864v-53.871a4.68,4.68,0,0,0-4.677-4.684h-28.1a4.683,4.683,0,0,0,0,9.367h23.41v53.87a4.682,4.682,0,0,0,4.69,4.684h113.722a4.679,4.679,0,0,0,4.682-4.684v-62.686a38.219,38.219,0,0,0-38.18-38.176h-9.754v-6.613h26.8A25.164,25.164,0,0,0,4294.5,1643.8V1573.02a4.682,4.682,0,1,0-9.365,0v10.6a17.161,17.161,0,0,0-8.976-2.848v-22.581a52.149,52.149,0,0,0-9.367-29.917,4.693,4.693,0,0,0-6.815-.949,115.772,115.772,0,0,1-95.109,24.106,4.667,4.667,0,0,0-5.563,4.354c-.045.759-.063,1.551-.063,2.405v22.581a17.157,17.157,0,0,0-8.969,2.848v-35.46a50.655,50.655,0,0,1,50.593-50.6h31.074a14.617,14.617,0,0,1,13.425,8.817l1.986,4.594a4.682,4.682,0,0,0,4.3,2.823h9.373a24.139,24.139,0,0,1,24.115,24.112v13a4.685,4.685,0,0,0,4.682,4.684m-281.759,60.687a4.69,4.69,0,0,0-4.684-4.443h-4.252a7.887,7.887,0,0,1-7.873-7.879v-5.943a7.882,7.882,0,0,1,7.873-7.873h4.184a4.681,4.681,0,0,0,4.682-4.683v-15.544c9.761-1.4,15.261-5.2,17.646-12.612a60.582,60.582,0,0,0,13.906,10c21.871,11.518,47.333,8.942,66.629,3.874v14.284a4.685,4.685,0,0,0,4.683,4.683h4.183a7.88,7.88,0,0,1,7.873,7.873v5.943a7.885,7.885,0,0,1-7.873,7.879h-4.258a4.69,4.69,0,0,0-4.684,4.443,49.134,49.134,0,0,1-30.618,42.954l-.089.037a49.338,49.338,0,0,1-36.6,0c-.093-.037-.183-.075-.272-.107a49.015,49.015,0,0,1-30.453-42.884m49.022,55.884a58.878,58.878,0,0,0,15.488-2.088v17.189a15.493,15.493,0,0,1-30.987,0v-17.189a58.268,58.268,0,0,0,15.5,2.088m-72.964,13.987a7,7,0,0,1,6.992-6.994h11.411a3.9,3.9,0,0,1,3.886,3.893v31.682a3.9,3.9,0,0,1-3.886,3.9h-11.411a7.008,7.008,0,0,1-6.992-6.993Zm136.393,27.587v58h-13.132v-31.384a4.683,4.683,0,1,0-9.367,0v31.384h-81.864v-31.384a4.684,4.684,0,1,0-9.367,0v31.384h-13.132v-43.751h8.872a13.272,13.272,0,0,0,13.26-13.259V1685.7a28.635,28.635,0,0,1,6.677-.785h9.759v2.342a24.859,24.859,0,1,0,49.718,0v-2.342h9.76a28.845,28.845,0,0,1,28.815,28.816m112.69-26.474c0,5.19-8.431,12.524-15.494,16.949-7.067-4.425-15.5-11.759-15.5-16.949v-17.189a58.23,58.23,0,0,0,15.493,2.088,58.951,58.951,0,0,0,15.5-2.088Zm51.936-43.466a15.789,15.789,0,0,1-15.767,15.776h-15.43c1.4-1.106,2.767-2.29,4.076-3.536a58.209,58.209,0,0,0,17.664-34.834,17.179,17.179,0,0,0,9.457-2.849Zm-133.268-45.783a7.887,7.887,0,0,1,7.879-7.873h4.177a4.679,4.679,0,0,0,4.682-4.683v-23.9a125.124,125.124,0,0,0,93.1-23.682,42.772,42.772,0,0,1,5.088,20.322v27.258a4.682,4.682,0,0,0,4.685,4.683h4.181a7.882,7.882,0,0,1,7.875,7.873v5.943a7.883,7.883,0,0,1-7.875,7.879H4271.4a4.679,4.679,0,0,0-4.677,4.443,49.121,49.121,0,0,1-30.544,42.916l-.246.108a49.351,49.351,0,0,1-36.524-.033c-.089-.037-.182-.075-.28-.107a49.032,49.032,0,0,1-30.447-42.884,4.677,4.677,0,0,0-4.676-4.443h-4.26a7.889,7.889,0,0,1-7.879-7.879Zm7.861,23.189a58.267,58.267,0,0,0,21.731,38.371h-15.416a15.791,15.791,0,0,1-15.772-15.776v-25.443a17.18,17.18,0,0,0,9.457,2.849" transform="translate(-3927.076 -1488.194)"/>
    </g>
    <g id="Group_692" data-name="Group 692" transform="translate(4519.521 1492.479)">
      <text id="Fun_Filled_" data-name="Fun Filled " transform="translate(133.462 387.801)" fill="#fff" font-size="48" font-family="Quicksand-Regular, Quicksand"><tspan x="0" y="0" letter-spacing="-0.014em">F</tspan><tspan y="0">un Fil</tspan><tspan y="0" letter-spacing="-0.009em">l</tspan><tspan y="0">ed </tspan></text>
      <text id="ARTivities_Activities" data-name="ARTivities &amp; Activities" transform="translate(0 448.076)" font-size="48" font-family="Quicksand-Regular, Quicksand"><tspan x="0" y="0">A</tspan><tspan y="0" letter-spacing="-0.015em">R</tspan><tspan y="0">Tivities &amp; Activities</tspan></text>
      <path id="Path_1374" data-name="Path 1374" d="M4174.619,1506.115a85.407,85.407,0,1,1-85.41,85.408,85.41,85.41,0,0,1,85.41-85.408" transform="translate(-3869.438 -1396.981)" fill="#ffdaaa"/>
      <path id="Path_1375" data-name="Path 1375" d="M4192.111,1591.523a85.409,85.409,0,0,1-85.414,85.407c-1.565,0-3.179-.05-4.742-.139a85.411,85.411,0,0,0,0-170.537c1.563-.094,3.176-.139,4.742-.139a85.41,85.41,0,0,1,85.414,85.408" transform="translate(-3801.523 -1396.981)" fill="#ffc477"/>
      <path id="Path_1376" data-name="Path 1376" d="M4180.123,1537.074l-9.4,2.322,4.987,8.309-13.43,13.424-8.3-4.981-2.33,9.391H4132.67l-2.322-9.391-8.3,4.981-13.431-13.424,4.981-8.309-9.391-2.322v-18.98l9.391-2.323-4.981-8.311,13.431-13.429,8.3,4.987,2.322-9.4h18.979l2.33,9.4,8.3-4.987,13.43,13.429-4.987,8.311,9.4,2.323Z" transform="translate(-3789.535 -1484.881)" fill="#c0ab91"/>
      <path id="Path_1377" data-name="Path 1377" d="M4122.192,1493.369a14.237,14.237,0,1,1-14.24,14.233,14.236,14.236,0,0,1,14.24-14.233" transform="translate(-3769.566 -1464.902)" fill="#ffde55"/>
      <path id="Path_1378" data-name="Path 1378" d="M4212.412,1588.128a62.14,62.14,0,0,1-4.652,11.29l6.74,9.443,5.973,8.4-20.111,20.114-8.4-5.981-9.45-6.739a62.834,62.834,0,0,1-11.29,4.658l-3.608,21.631h-28.468l-3.6-21.631a62.647,62.647,0,0,1-11.293-4.658l-17.845,12.721-20.114-20.114,12.714-17.847a69.4,69.4,0,0,1-4.652-11.29l-21.639-3.608v-28.468l21.639-3.613a80.152,80.152,0,0,1,4.652-11.291l-12.714-17.841,20.114-20.119,17.845,12.721a61.1,61.1,0,0,1,11.293-4.653l3.6-21.637h28.468l3.608,21.637a61.279,61.279,0,0,1,11.29,4.653l17.849-12.721,20.111,20.119-12.713,17.841a62.146,62.146,0,0,1,4.652,11.291l21.632,3.613v28.468Z" transform="translate(-3957.337 -1484.88)" fill="#57a4ff"/>
      <path id="Path_1379" data-name="Path 1379" d="M4129.165,1528.832l-23.725,52.2v-33.22h-23.729l23.729-52.193v33.214Z" transform="translate(-3909.396 -1452.919)" fill="#ffde55"/>
      <path id="Path_1380" data-name="Path 1380" d="M4148.636,1568.563l-9.391,2.322,4.981,8.3-13.43,13.429-8.3-4.981-2.33,9.392h-18.981l-2.322-9.392-8.3,4.981-13.43-13.429,4.987-8.3-9.4-2.322v-18.98l9.4-2.323-4.987-8.309,13.43-13.43,8.3,4.981,2.322-9.392h18.981l2.33,9.392,8.3-4.981,13.43,13.43-4.981,8.309,9.391,2.323Z" transform="translate(-3957.337 -1317.081)" fill="#c0ab91"/>
      <path id="Path_1381" data-name="Path 1381" d="M4090.7,1524.858a14.234,14.234,0,1,1-14.231,14.234,14.24,14.24,0,0,1,14.231-14.234" transform="translate(-3937.361 -1297.102)" fill="#ffde55"/>
      <path id="Path_1382" data-name="Path 1382" d="M4111.307,1498.358h40.171v-9.488h-42.708a4.761,4.761,0,0,0-3.95,2.108l-9.486,14.24,7.894,5.266Z" transform="translate(-3836.806 -1488.871)"/>
      <path id="Path_1383" data-name="Path 1383" d="M4124.88,1542.56h-40.169v9.494h42.707a4.745,4.745,0,0,0,3.949-2.114l9.487-14.234-7.892-5.266Z" transform="translate(-3893.414 -1267.357)"/>
      <path id="Path_1384" data-name="Path 1384" d="M4266.509,1593.259a89.086,89.086,0,0,0-46.772,13.189l-2.462-3.448a66.3,66.3,0,0,0,2.755-6.678l18.79-3.133a4.738,4.738,0,0,0,3.962-4.677v-28.468a4.738,4.738,0,0,0-3.962-4.677l-18.79-3.14a66.235,66.235,0,0,0-2.755-6.669l11.062-15.5a4.739,4.739,0,0,0-.5-6.108L4207.7,1503.82a4.748,4.748,0,0,0-6.115-.506l-15.493,11.063a65.926,65.926,0,0,0-6.677-2.734l-3.126-18.784a4.741,4.741,0,0,0-4.685-3.987h-28.468a4.738,4.738,0,0,0-4.677,3.962l-3.132,18.785a67.129,67.129,0,0,0-6.676,2.759l-15.494-11.062a4.746,4.746,0,0,0-6.113.506l-20.134,20.131a4.741,4.741,0,0,0-.5,6.108l11.118,15.563a62.514,62.514,0,0,0-2.722,6.594l-18.877,3.152a4.736,4.736,0,0,0-3.962,4.677v28.468a4.736,4.736,0,0,0,3.962,4.677l18.872,3.146a69.508,69.508,0,0,0,2.677,6.645l-11.068,15.513a4.749,4.749,0,0,0,.5,6.113l20.134,20.132a4.755,4.755,0,0,0,6.113.505l15.494-11.062a67.343,67.343,0,0,0,6.676,2.752l3.132,18.79a4.744,4.744,0,0,0,4.677,3.962h28.468a4.753,4.753,0,0,0,4.685-3.962l3.126-18.79a66.217,66.217,0,0,0,6.677-2.752l3.449,2.455a89.1,89.1,0,0,0-13.189,46.777,90.154,90.154,0,1,0,90.156-90.154m-82.244,31.208a56.4,56.4,0,0,1-10.437,4.3,4.731,4.731,0,0,0-3.316,3.766l-2.925,17.664h-20.429l-2.942-17.664a4.753,4.753,0,0,0-3.323-3.766,56.57,56.57,0,0,1-10.437-4.3,4.754,4.754,0,0,0-5.007.316l-14.563,10.405-14.422-14.442,10.4-14.57a4.764,4.764,0,0,0,.316-5.006,63.847,63.847,0,0,1-4.378-10.651,4.751,4.751,0,0,0-3.69-3.083l-17.664-2.942v-20.431l17.664-2.942a4.744,4.744,0,0,0,3.682-3.089,77.2,77.2,0,0,1,4.5-10.854,4.757,4.757,0,0,0-.426-4.8l-10.4-14.569,14.448-14.443,14.563,10.4a4.741,4.741,0,0,0,5,.323,56.725,56.725,0,0,1,10.444-4.31,4.739,4.739,0,0,0,3.32-3.759l2.919-17.664h20.429l2.943,17.664a4.744,4.744,0,0,0,3.322,3.759,56.624,56.624,0,0,1,10.437,4.31,4.75,4.75,0,0,0,5-.323l14.563-10.4,14.442,14.443-10.4,14.569a4.743,4.743,0,0,0-.316,5,57.242,57.242,0,0,1,4.31,10.437,4.739,4.739,0,0,0,3.761,3.329l17.662,2.936v20.436l-17.662,2.942a4.746,4.746,0,0,0-3.761,3.317,56.916,56.916,0,0,1-4.31,10.443,4.743,4.743,0,0,0,.316,5l10.4,14.563-14.442,14.448-14.563-10.4a4.768,4.768,0,0,0-5.029-.36m86.989,139.367V1749.84h-9.493v13.994a80.634,80.634,0,0,1-75.674-75.674h13.992v-9.493h-14.061a79.442,79.442,0,0,1,11.258-36.5l4.31,3.081a4.756,4.756,0,0,0,6.115-.505l20.132-20.132a4.746,4.746,0,0,0,.5-6.113l-3.08-4.31a79.5,79.5,0,0,1,36.5-11.26v14.063h9.493v-13.993a80.642,80.642,0,0,1,75.68,75.675h-13.992v9.493h13.992a80.647,80.647,0,0,1-75.68,75.674" transform="translate(-3961.329 -1488.871)"/>
      <path id="Path_1385" data-name="Path 1385" d="M4111.448,1510.613h-9.493v56.94a4.749,4.749,0,0,0,4.748,4.746h37.959v-9.493h-33.214Z" transform="translate(-3801.523 -1373.011)"/>
      <path id="Path_1386" data-name="Path 1386" d="M4133.157,1528.082h-18.979v-28.473a4.745,4.745,0,0,0-9.063-1.962l-23.726,52.195a4.742,4.742,0,0,0,4.315,6.708h18.981v28.473a4.741,4.741,0,0,0,3.74,4.633,4.525,4.525,0,0,0,1.005.108,4.748,4.748,0,0,0,4.323-2.785l23.72-52.193a4.734,4.734,0,0,0-2.354-6.279,4.663,4.663,0,0,0-1.963-.424m-18.979,35.031V1551.8a4.744,4.744,0,0,0-4.748-4.74h-16.354l11.608-25.543v11.3a4.748,4.748,0,0,0,4.746,4.747h16.355Z" transform="translate(-3913.388 -1456.908)"/>
      <rect id="Rectangle_1103" data-name="Rectangle 1103" width="9.493" height="9.487" transform="translate(191.3 18.98)"/>
      <rect id="Rectangle_1104" data-name="Rectangle 1104" width="9.494" height="9.494" transform="translate(145.704 41.789) rotate(-45)"/>
      <rect id="Rectangle_1105" data-name="Rectangle 1105" width="9.493" height="9.493" transform="translate(129.613 80.661)"/>
      <rect id="Rectangle_1106" data-name="Rectangle 1106" width="9.492" height="9.492" transform="matrix(0.707, -0.707, 0.707, 0.707, 145.693, 129.012)"/>
      <rect id="Rectangle_1107" data-name="Rectangle 1107" width="9.493" height="9.487" transform="translate(191.3 142.348)"/>
      <rect id="Rectangle_1108" data-name="Rectangle 1108" width="9.494" height="9.494" transform="matrix(0.707, -0.707, 0.707, 0.707, 232.913, 129.025)"/>
      <rect id="Rectangle_1109" data-name="Rectangle 1109" width="9.493" height="9.493" transform="translate(252.981 80.661)"/>
      <rect id="Rectangle_1110" data-name="Rectangle 1110" width="9.49" height="9.49" transform="matrix(0.707, -0.707, 0.707, 0.707, 232.929, 41.803)"/>
      <path id="Path_1387" data-name="Path 1387" d="M4126.184,1492.619a18.98,18.98,0,1,0,18.979,18.979,18.982,18.982,0,0,0-18.979-18.979m0,28.473a9.49,9.49,0,1,1,9.493-9.494,9.5,9.5,0,0,1-9.493,9.494" transform="translate(-3773.557 -1468.898)"/>
      <path id="Path_1388" data-name="Path 1388" d="M4185.272,1517.478l-3.17-.791,1.685-2.8a4.74,4.74,0,0,0-.721-5.8l-13.418-13.417a4.738,4.738,0,0,0-5.8-.716l-2.8,1.684-.791-3.177a4.749,4.749,0,0,0-4.607-3.589h-18.979a4.746,4.746,0,0,0-4.6,3.589l-.789,3.177-2.8-1.684a4.742,4.742,0,0,0-5.8.716l-13.422,13.417a4.749,4.749,0,0,0-.718,5.8l1.685,2.8-3.17.791a4.753,4.753,0,0,0-3.594,4.607v18.98a4.744,4.744,0,0,0,3.594,4.6l3.17.792-1.685,2.8a4.755,4.755,0,0,0,.718,5.8l13.422,13.417a4.75,4.75,0,0,0,5.8.715l2.8-1.684.789,3.177a4.752,4.752,0,0,0,4.6,3.589h18.979a4.754,4.754,0,0,0,4.607-3.589l.791-3.177,2.8,1.684a4.746,4.746,0,0,0,5.8-.715l13.418-13.417a4.746,4.746,0,0,0,.721-5.8l-1.685-2.8,3.17-.792a4.743,4.743,0,0,0,3.6-4.6v-18.98a4.753,4.753,0,0,0-3.6-4.607m-5.9,19.879-5.8,1.431a4.733,4.733,0,0,0-3.442,5.752,4.6,4.6,0,0,0,.538,1.292l3.063,5.113-8.178,8.185-5.121-3.07a4.734,4.734,0,0,0-6.511,1.627,4.546,4.546,0,0,0-.532,1.285l-1.449,5.815h-11.569l-1.425-5.789a4.747,4.747,0,0,0-5.754-3.449,4.936,4.936,0,0,0-1.289.537l-5.12,3.064-8.184-8.177,3.068-5.12a4.747,4.747,0,0,0-1.619-6.513,4.818,4.818,0,0,0-1.292-.532l-5.817-1.449v-11.569l5.793-1.424a4.738,4.738,0,0,0,2.911-7.044l-3.063-5.12,8.178-8.183,5.117,3.076a4.757,4.757,0,0,0,6.515-1.626,5,5,0,0,0,.532-1.292l1.423-5.791h11.567l1.425,5.791a4.76,4.76,0,0,0,5.754,3.455,4.953,4.953,0,0,0,1.293-.538l5.123-3.076,8.178,8.183-3.068,5.12a4.749,4.749,0,0,0,1.627,6.512,4.5,4.5,0,0,0,1.283.532l5.8,1.424Z" transform="translate(-3793.536 -1488.871)"/>
      <path id="Path_1389" data-name="Path 1389" d="M4094.693,1524.108a18.98,18.98,0,1,0,18.979,18.98,18.982,18.982,0,0,0-18.979-18.98m0,28.474a9.49,9.49,0,1,1,9.492-9.494,9.5,9.5,0,0,1-9.492,9.494" transform="translate(-3941.356 -1301.099)"/>
      <path id="Path_1390" data-name="Path 1390" d="M4152.295,1580.749l-1.683-2.8,3.172-.8a4.731,4.731,0,0,0,3.592-4.594v-18.98a4.749,4.749,0,0,0-3.592-4.607l-3.172-.792,1.683-2.8a4.741,4.741,0,0,0-.721-5.8l-13.416-13.417a4.74,4.74,0,0,0-5.8-.715l-2.805,1.676-.791-3.17a4.745,4.745,0,0,0-4.607-3.588h-18.981a4.745,4.745,0,0,0-4.6,3.588l-.792,3.17-2.8-1.676a4.741,4.741,0,0,0-5.8.715l-13.423,13.417a4.747,4.747,0,0,0-.714,5.8l1.688,2.8-3.176.792a4.749,4.749,0,0,0-3.594,4.607v18.98a4.73,4.73,0,0,0,3.594,4.594l3.176.8-1.688,2.8a4.747,4.747,0,0,0,.714,5.8l13.423,13.423a4.75,4.75,0,0,0,5.8.716l2.8-1.684.792,3.177a4.753,4.753,0,0,0,4.6,3.589h18.981a4.753,4.753,0,0,0,4.607-3.589l.791-3.177,2.805,1.684a4.748,4.748,0,0,0,5.8-.716l13.416-13.423a4.741,4.741,0,0,0,.721-5.8m-4.41-11.9-5.792,1.424a4.74,4.74,0,0,0-3.448,5.759,4.617,4.617,0,0,0,.537,1.285l3.063,5.12-8.175,8.177-5.121-3.063a4.741,4.741,0,0,0-6.513,1.62,4.823,4.823,0,0,0-.531,1.291l-1.449,5.816h-11.57l-1.424-5.79a4.738,4.738,0,0,0-7.043-2.912l-5.119,3.064-8.2-8.177,3.065-5.12a4.741,4.741,0,0,0-1.622-6.512,4.692,4.692,0,0,0-1.291-.532l-5.791-1.449v-11.569l5.791-1.424a4.742,4.742,0,0,0,3.45-5.753,4.829,4.829,0,0,0-.538-1.292l-3.065-5.12,8.178-8.183,5.121,3.076a4.752,4.752,0,0,0,6.511-1.627,4.916,4.916,0,0,0,.531-1.292l1.423-5.789h11.572l1.421,5.789a4.757,4.757,0,0,0,7.046,2.919l5.125-3.076,8.178,8.183-3.071,5.12a4.746,4.746,0,0,0,1.628,6.507,4.5,4.5,0,0,0,1.285.538l5.8,1.424Z" transform="translate(-3961.334 -1321.072)"/>
    </g>
    <g id="Group_696" data-name="Group 696" transform="translate(5156.118 1492.593)">
      <g id="Group_695" data-name="Group 695" transform="translate(0 347.585)" style="mix-blend-mode: normal;isolation: isolate">
        <g id="Group_694" data-name="Group 694">
          <g id="Group_693" data-name="Group 693" clip-path="url(#clip-path-2)">
            <text id="Immersive_3D_AR_" data-name="Immersive 3D (AR) " transform="translate(-0.012 40.061)" font-size="48" font-family="Quicksand-Regular, Quicksand"><tspan x="0" y="0">Immersi</tspan><tspan y="0" letter-spacing="-0.005em">v</tspan><tspan y="0">e 3D (AR) </tspan></text>
            <text id="Learning_app" data-name="Learning app" transform="translate(68.152 101.336)" font-size="49" font-family="Quicksand-Regular, Quicksand"><tspan x="0" y="0">L</tspan><tspan y="0" letter-spacing="0.003em">e</tspan><tspan y="0">arning app</tspan></text>
          </g>
        </g>
      </g>
      <path id="Path_1391" data-name="Path 1391" d="M4327.822,1488.889H4208.13A18.183,18.183,0,0,0,4190,1507.021v232.205a18.193,18.193,0,0,0,18.135,18.139h119.692a18.181,18.181,0,0,0,18.134-18.133V1507.021a18.185,18.185,0,0,0-18.134-18.132m-79,13.069h38.292a2.2,2.2,0,1,1,0,4.4h-38.292a2.2,2.2,0,0,1,0-4.4m19.149,246.336a9.069,9.069,0,1,1,9.063-9.068,9.066,9.066,0,0,1-9.063,9.068m65.358-24.492H4202.611V1517.647h130.724Z" transform="translate(-3968.968 -1488.889)" fill="#540202"/>
      <rect id="Rectangle_1112" data-name="Rectangle 1112" width="130.722" height="206.155" transform="translate(233.647 28.758)" fill="#ffdaaa"/>
      <path id="Path_1392" data-name="Path 1392" d="M4253.566,1561.006l-48.782-45.922-15.683,4.209,3.284,4.12,10.442-.031,20.249,37.625Z" transform="translate(-3973.739 -1349.3)" fill="#bd403a"/>
      <path id="Path_1393" data-name="Path 1393" d="M4198.508,1561.006l20.246-37.625,10.442.031,3.278-4.12-15.683-4.209-48.774,45.922Z" transform="translate(-4086.087 -1349.3)" fill="#bd403a"/>
      <path id="Path_1394" data-name="Path 1394" d="M4168.016,1522.34l7.747,75.015h69.357l12.632-48.719h18.426l12.638,48.719h69.357l7.746-75.015Z" transform="translate(-4086.089 -1310.633)" fill="#333"/>
      <path id="Path_1395" data-name="Path 1395" d="M4183.587,1522.34v26.3h9.614l12.639,48.719H4275.2l7.747-75.015Z" transform="translate(-4003.113 -1310.633)" fill="#1a1a1a"/>
      <rect id="Rectangle_1113" data-name="Rectangle 1113" width="43.783" height="17.91" transform="translate(77.08 218.813)" fill="#a30505"/>
    </g>
    <g id="Group_700" data-name="Group 700" transform="translate(6256.523 1496.466)">
      <g id="Group_699" data-name="Group 699" transform="translate(0 380.04)" style="mix-blend-mode: normal;isolation: isolate">
        <g id="Group_698" data-name="Group 698">
          <g id="Group_697" data-name="Group 697" clip-path="url(#clip-path-3)">
            <text id="Designed_for_Re-use" data-name="Designed for Re-use" transform="translate(-0.006 41.05)" font-size="49" font-family="Quicksand-Regular, Quicksand"><tspan x="0" y="0" letter-spacing="0.008em">D</tspan><tspan y="0">esigned for </tspan><tspan y="0" letter-spacing="-0.005em">R</tspan><tspan y="0">e-use</tspan></text>
          </g>
        </g>
      </g>
      <path id="Path_1396" data-name="Path 1396" d="M4629.183,1631.685A142.184,142.184,0,1,1,4487,1489.5a142.18,142.18,0,0,1,142.185,142.184" transform="translate(-4244.366 -1489.501)" fill="#b56d3c"/>
      <path id="Path_1397" data-name="Path 1397" d="M4535.756,1526.338l-53.892-29.422-80.666,12.891-50.561,82.364,47.612,47.618-40.067,37.593,48,48a142.255,142.255,0,0,0,183-183l-35.424-35.422Z" transform="translate(-4213.335 -1449.988)" fill="#854d28"/>
      <path id="Path_1398" data-name="Path 1398" d="M4538.288,1511.967a88.676,88.676,0,0,1-153.9,60.079l18.119,2.867,2.614-16.454-46.006-7.292-7.289,46.011,16.454,2.607,2.8-17.645a106.46,106.46,0,0,0,31.277,23.986,104.216,104.216,0,0,0,47.265,11.177,105.45,105.45,0,0,0,105.329-105.336Zm-165.321,58.268.792.127-.926.716Z" transform="translate(-4206.984 -1369.783)" fill="#fff"/>
      <path id="Path_1399" data-name="Path 1399" d="M4367.3,1600.661h-16.663a105.341,105.341,0,0,1,192.137-59.688l-13.722,9.456a88.677,88.677,0,0,0-161.752,50.232" transform="translate(-4213.335 -1458.476)" fill="#fff"/>
      <path id="Path_1400" data-name="Path 1400" d="M4456.139,1511.967a88.77,88.77,0,0,1-88.666,88.673l-.228-.006V1617.3l.228.006A105.45,105.45,0,0,0,4472.8,1511.967Z" transform="translate(-4124.835 -1369.783)" fill="#e9edf5"/>
      <path id="Path_1401" data-name="Path 1401" d="M4405.314,1652.5l-23.168-23.164a75.132,75.132,0,0,1,0-106.248l23.168-23.171,23.171,23.171a75.133,75.133,0,0,1,0,106.248Z" transform="translate(-4162.682 -1434.017)" fill="#aaf471"/>
      <path id="Path_1402" data-name="Path 1402" d="M4390.642,1523.083l-23.168-23.171-.228.222v152.139l.228.221,23.168-23.164a75.127,75.127,0,0,0,0-106.248" transform="translate(-4124.835 -1434.017)" fill="#77db56"/>
      <path id="Path_1403" data-name="Path 1403" d="M4443.49,1544.5a74.679,74.679,0,0,0-10.664-16.689l-17.84,17.848v-36.075l-9.671-9.67-9.669,9.67v36.075l-17.834-17.854a74.841,74.841,0,0,0-10.664,16.695l28.5,28.5v24.657l-34.386-34.378a75.448,75.448,0,0,0,.343,27.689l34.043,34.05v17.822l9.669,9.657,9.671-9.657v-17.822l34.043-34.05a75.458,75.458,0,0,0,.343-27.689l-34.386,34.378V1573Z" transform="translate(-4162.682 -1434.022)" fill="#77db56"/>
      <path id="Path_1404" data-name="Path 1404" d="M4411.522,1563.276l-34.386,34.386V1573l28.5-28.5a74.905,74.905,0,0,0-10.664-16.683l-17.841,17.841v-36.062l-9.671-9.678-.219.222v152.145l.219.221,9.671-9.67v-17.816l34.044-34.05a75.435,75.435,0,0,0,.342-27.689" transform="translate(-4124.835 -1434.022)" fill="#60c939"/>
      <path id="Path_1405" data-name="Path 1405" d="M4448.8,1512.848l-2.8,17.633a105.365,105.365,0,0,0-78.542-35.158l-.219.007v16.664l.219-.006a88.7,88.7,0,0,1,65.207,28.594l-18.1-2.867-2.608,16.454,46.013,7.291,7.282-46Z" transform="translate(-4124.835 -1458.476)" fill="#e9edf5"/>
    </g>
    <g id="Group_701" data-name="Group 701" transform="translate(5707.442 1496.069)">
      <text id="Tinker_with_STEAM" data-name="Tinker with STEAM" transform="translate(0 422.007)" font-size="49" font-family="Quicksand-Regular, Quicksand"><tspan x="0" y="0">Tin</tspan><tspan y="0" letter-spacing="-0.022em">k</tspan><tspan y="0">er with STEAM</tspan></text>
      <rect id="Rectangle_1115" data-name="Rectangle 1115" width="437.853" height="53.289" transform="translate(0.006 380.943)" fill="none"/>
      <path id="Path_1406" data-name="Path 1406" d="M4284.31,1573.144a4.067,4.067,0,0,0,1.949-4.3,45.6,45.6,0,0,1,44.768-54.289h.1a4.086,4.086,0,0,0,3.8-2.486,36.324,36.324,0,0,1,32.815-21.93c20.238-.272,37.407,16.76,37.407,37v200.649c0,20.24-17.169,37.271-37.407,36.985a36.278,36.278,0,0,1-32.815-21.917,4.109,4.109,0,0,0-3.8-2.5h-.1a45.6,45.6,0,0,1-44.768-54.289,4.054,4.054,0,0,0-1.949-4.291,62.551,62.551,0,0,1,0-108.627" transform="translate(-4185.696 -1485.744)" fill="#60b8ff"/>
      <path id="Path_1407" data-name="Path 1407" d="M4353.33,1742.846a4.117,4.117,0,0,0-3.8-2.5h-.1a45.607,45.607,0,0,1-44.772-54.289,4.032,4.032,0,0,0-1.95-4.285,62.558,62.558,0,0,1,0-108.633,4.05,4.05,0,0,0,1.95-4.3,45.607,45.607,0,0,1,44.772-54.289h.1a4.1,4.1,0,0,0,3.8-2.5,36.36,36.36,0,0,1,24.045-20.713,35.281,35.281,0,0,0-9.633-1.2,36.3,36.3,0,0,0-32.809,21.916,4.11,4.11,0,0,1-3.8,2.5h-.1a45.623,45.623,0,0,0-44.774,54.289,4.046,4.046,0,0,1-1.942,4.3,62.55,62.55,0,0,0,0,108.633,4.024,4.024,0,0,1,1.942,4.285,45.624,45.624,0,0,0,44.774,54.289h.1a4.113,4.113,0,0,1,3.8,2.5,36.286,36.286,0,0,0,32.816,21.923,35.559,35.559,0,0,0,9.626-1.209,36.344,36.344,0,0,1-24.045-20.715" transform="translate(-4185.696 -1485.739)" fill="#22a7ff"/>
      <path id="Path_1408" data-name="Path 1408" d="M4397,1573.144a4.051,4.051,0,0,1-1.95-4.3,45.607,45.607,0,0,0-44.77-54.289h-.1a4.081,4.081,0,0,1-3.794-2.486,36.331,36.331,0,0,0-32.815-21.93c-20.242-.272-36.8,16.76-36.8,37v200.649c0,20.24,16.56,37.271,36.8,36.985a36.285,36.285,0,0,0,32.815-21.917,4.1,4.1,0,0,1,3.794-2.5h.1a45.607,45.607,0,0,0,44.77-54.289,4.046,4.046,0,0,1,1.95-4.291,62.551,62.551,0,0,0,0-108.627" transform="translate(-4057.921 -1485.744)" fill="#ff646f"/>
      <path id="Path_1409" data-name="Path 1409" d="M4295.161,1727.776V1527.133a37.217,37.217,0,0,1,27.193-35.783,35.919,35.919,0,0,0-8.788-1.216c-20.242-.278-36.8,16.76-36.8,37v200.643c0,20.24,16.56,37.277,36.8,37a36.161,36.161,0,0,0,8.788-1.215,37.219,37.219,0,0,1-27.193-35.783" transform="translate(-4057.916 -1485.744)" fill="#ff4755"/>
      <path id="Path_1410" data-name="Path 1410" d="M4320.289,1498.695a53.216,53.216,0,0,0-26.867,98.363,8.2,8.2,0,0,1,3.9,6.968v7.722a8.177,8.177,0,0,0,8.184,8.183h32.144a8.185,8.185,0,0,0,8.184-8.183v-7.722a8.225,8.225,0,0,1,3.909-6.98,53.213,53.213,0,0,0-29.454-98.351" transform="translate(-4102.732 -1440.193)" fill="#ffe55a"/>
      <path id="Path_1411" data-name="Path 1411" d="M4315.048,1611.749v-7.728a8.207,8.207,0,0,0-3.9-6.962,53.211,53.211,0,0,1,19.314-97.634,53.219,53.219,0,0,0-37.043,97.634,8.205,8.205,0,0,1,3.9,6.962v7.734a8.176,8.176,0,0,0,8.184,8.177h17.731a8.18,8.18,0,0,1-8.184-8.182" transform="translate(-4102.728 -1440.194)" fill="#ffd500"/>
      <path id="Path_1412" data-name="Path 1412" d="M4274.635,1523.183v8.981a8.463,8.463,0,0,0,8.437,8.436h10.077a8.462,8.462,0,0,0,8.435-8.436v-8.981Z" transform="translate(-4069.264 -1309.618)" fill="#4f66d1"/>
      <path id="Path_1413" data-name="Path 1413" d="M4292.37,1532.164v-8.981h-17.735v8.981a8.463,8.463,0,0,0,8.437,8.436h10.077a8.415,8.415,0,0,0,3.829-.93,8.454,8.454,0,0,1-4.608-7.506" transform="translate(-4069.264 -1309.618)" fill="#314dca"/>
      <path id="Path_1414" data-name="Path 1414" d="M4309.118,1520.511H4281.7a8.462,8.462,0,0,0-8.437,8.437v1.253a8.459,8.459,0,0,0,8.437,8.436h27.417a8.458,8.458,0,0,0,8.436-8.436v-1.253a8.461,8.461,0,0,0-8.436-8.437" transform="translate(-4076.562 -1323.857)" fill="#d9edff"/>
      <path id="Path_1415" data-name="Path 1415" d="M4309.118,1524.556H4281.7a8.434,8.434,0,0,1-6.812-3.494,8.369,8.369,0,0,0-1.625,4.949v1.259a8.463,8.463,0,0,0,8.437,8.436h27.417a8.462,8.462,0,0,0,8.436-8.436v-1.259a8.372,8.372,0,0,0-1.628-4.949,8.429,8.429,0,0,1-6.808,3.494" transform="translate(-4076.562 -1320.921)" fill="#b4dbff"/>
      <path id="Path_1416" data-name="Path 1416" d="M4309.118,1517.743H4281.7a8.463,8.463,0,0,0-8.437,8.436v1.253a8.459,8.459,0,0,0,8.437,8.436h27.417a8.458,8.458,0,0,0,8.436-8.436v-1.253a8.462,8.462,0,0,0-8.436-8.436" transform="translate(-4076.562 -1338.607)" fill="#d9edff"/>
      <path id="Path_1417" data-name="Path 1417" d="M4309.118,1521.787H4281.7a8.434,8.434,0,0,1-6.812-3.494,8.357,8.357,0,0,0-1.625,4.949v1.26a8.464,8.464,0,0,0,8.437,8.436h27.417a8.463,8.463,0,0,0,8.436-8.436v-1.26a8.359,8.359,0,0,0-1.628-4.949,8.429,8.429,0,0,1-6.808,3.494" transform="translate(-4076.562 -1335.676)" fill="#b4dbff"/>
      <path id="Path_1418" data-name="Path 1418" d="M4531.206,1573.23a50.22,50.22,0,0,0-49.151-59.377,40.913,40.913,0,0,0-24.264-22.252,4.578,4.578,0,1,0-2.943,8.67c14.469,4.918,22.411,19.36,22.411,33.4a4.581,4.581,0,0,0,9.162,0,46.788,46.788,0,0,0-1.289-10.519,41.021,41.021,0,0,1,37.474,45.618,49.029,49.029,0,0,0-11.457-3.589,21.894,21.894,0,0,0-10.494-14.714,4.575,4.575,0,1,0-4.587,7.918,12.657,12.657,0,0,1,.006,21.922,4.581,4.581,0,1,0,4.587,7.931,21.961,21.961,0,0,0,10.272-13.778c15.607,3.329,44.6,22.391,44.6,56.865a58.166,58.166,0,0,1-28.847,50.111c-.609.285-8.16,5.1-15.754,6.721a21.876,21.876,0,0,0-10.272-13.777,4.575,4.575,0,1,0-4.587,7.917,12.67,12.67,0,0,1-.006,21.917,4.583,4.583,0,0,0,4.587,7.936,21.931,21.931,0,0,0,10.487-14.727,48.712,48.712,0,0,0,11.463-3.582,41.046,41.046,0,0,1-37.486,45.663,46.872,46.872,0,0,0,1.3-10.57,4.581,4.581,0,0,0-9.162,0c0,18.3-13.008,34.852-32.164,35.125-17.8.266-32.164-14.879-32.164-32.417v-6.468h.464a13.029,13.029,0,0,0,13.01-13.019v-3.923a13.1,13.1,0,0,0,8.677-12.271v-.647a13.17,13.17,0,0,0-3.115-8.442,13.188,13.188,0,0,0,3.115-8.437v-.651a13.183,13.183,0,0,0-2.134-7.126,12.767,12.767,0,0,0,4.24-9.494v-7.727a3.669,3.669,0,0,1,1.761-3.089,58.168,58.168,0,0,0,25.766-36.194,4.58,4.58,0,0,0-8.931-2.039,48.91,48.91,0,0,1-21.688,30.461h-.006a12.842,12.842,0,0,0-5.1,6l-.04.115c-1.146,2.821-.917,4.2-.917,12.473a3.609,3.609,0,0,1-3.608,3.6h-11.494v-22.22a18.589,18.589,0,0,0,14.537-18.113v-6.615a4.581,4.581,0,0,0-1.415-8.936h-35.621a4.578,4.578,0,0,0-1.191,9v6.551a18.6,18.6,0,0,0,14.54,18.113v22.22h-11.5a3.6,3.6,0,0,1-3.607-3.6c0-8.348.039-8.278-.1-9.361a12.694,12.694,0,0,0-5.948-9.208,48.419,48.419,0,0,1-15.985-66.111c23.436-38.974,81.664-27.524,89.57,16.087a4.583,4.583,0,0,0,9.02-1.626,57.8,57.8,0,0,0-52.3-47.226V1531a32.534,32.534,0,0,1,23.28-31.214,4.581,4.581,0,0,0-2.541-8.8,41.444,41.444,0,0,0-25.341,21.088c-15.991-31.4-59.919-29.5-73.68,1.779a50.223,50.223,0,0,0-49.146,59.377c-44.608,25.9-44.524,90.344,0,116.185a50.242,50.242,0,0,0,49.146,59.4c13.7,31.119,57.652,33.322,73.7,1.727,15.968,31.43,59.931,29.557,73.7-1.727a50.24,50.24,0,0,0,49.151-59.4c44.609-25.9,44.524-90.338,0-116.185m-132.8,51.207v-6.386h19.9v6.386a9.416,9.416,0,0,1-9.413,9.4h-1.073a9.421,9.421,0,0,1-9.418-9.4m18.847,87.723a3.857,3.857,0,0,1-3.853,3.86H4403.32a3.858,3.858,0,0,1-3.855-3.86v-3.177h17.784Zm4.815-38.225a3.87,3.87,0,0,1,3.864,3.854v.651a3.861,3.861,0,0,1-3.864,3.854h-27.417a3.853,3.853,0,0,1-3.853-3.854v-.651a3.861,3.861,0,0,1,3.853-3.854Zm0,17.524a3.867,3.867,0,0,1,3.864,3.86v.647a3.879,3.879,0,0,1-4.1,3.86h-26.949a3.874,3.874,0,0,1-4.088-3.86v-.647a3.859,3.859,0,0,1,3.853-3.86Zm-50.446,72.6c-19.178-.273-32.162-16.866-32.162-35.125a4.583,4.583,0,0,0-9.166,0,46.952,46.952,0,0,0,1.3,10.57,41.045,41.045,0,0,1-37.483-45.663,48.7,48.7,0,0,0,11.454,3.582,21.913,21.913,0,0,0,10.493,14.727,4.584,4.584,0,0,0,4.588-7.936,12.665,12.665,0,0,1-.006-21.911,4.578,4.578,0,1,0-4.589-7.923,21.892,21.892,0,0,0-10.273,13.777c-15.3-3.266-44.6-21.828-44.6-56.833,0-35.322,29.879-53.726,44.6-56.865a21.962,21.962,0,0,0,10.273,13.778,4.581,4.581,0,1,0,4.589-7.931,12.674,12.674,0,0,1,.006-21.922,4.576,4.576,0,1,0-4.588-7.918,21.878,21.878,0,0,0-10.493,14.714,49.214,49.214,0,0,0-11.46,3.589,41.022,41.022,0,0,1,37.484-45.618,46.826,46.826,0,0,0-1.3,10.519,4.58,4.58,0,0,0,9.16,0,43.556,43.556,0,0,1,3.46-15.835l.012-.038.025-.057a31.753,31.753,0,0,1,29.1-19.151c17.771,0,31.727,15.176,31.727,32.409v12.7a57.8,57.8,0,0,0-26,106.659,3.638,3.638,0,0,1,1.75,3.083v7.727a12.785,12.785,0,0,0,4.234,9.494,13.129,13.129,0,0,0-2.128,7.126v.651a13.176,13.176,0,0,0,3.114,8.437,13.255,13.255,0,0,0-3.114,8.442v.647a13.091,13.091,0,0,0,8.668,12.271v3.923a13.033,13.033,0,0,0,13.021,13.019h.456v6.468c.006,17.41-14.2,32.657-32.158,32.417" transform="translate(-4189.422 -1489.438)"/>
    </g>
  </g>
</svg>
