<svg xmlns="http://www.w3.org/2000/svg" width="377.359" height="377.358" viewBox="0 0 377.359 377.358">
  <g id="Group_715" data-name="Group 715" transform="translate(-184.64 -1244.219)">
    <path id="Path_1442" data-name="Path 1442" d="M4722.171,1678.18c0,104.207-84.472,188.679-188.683,188.679s-188.676-84.472-188.676-188.679,84.473-188.679,188.676-188.679,188.683,84.48,188.683,188.679" transform="translate(-4160.172 -245.282)" fill="#b56d3c"/>
    <path id="Path_1443" data-name="Path 1443" d="M4596.291,1535.959l-71.512-39.044-107.05,17.107-67.092,109.3,63.181,63.189-53.171,49.887,63.7,63.7a188.358,188.358,0,0,0,66.072,11.9c104.2,0,188.668-84.463,188.668-188.679a188.165,188.165,0,0,0-11.9-66.062l-47.008-47.006Z" transform="translate(-4117.09 -190.422)" fill="#854d28"/>
    <path id="Path_1444" data-name="Path 1444" d="M4599.261,1511.966a117.674,117.674,0,0,1-204.221,79.726l24.042,3.8,3.47-21.835-61.048-9.675-9.675,61.057,21.839,3.46,3.712-23.414a141.243,141.243,0,0,0,41.5,31.83,138.3,138.3,0,0,0,62.721,14.831c77.071,0,139.771-62.7,139.771-139.783Zm-219.381,77.323,1.049.168-1.228.949Z" transform="translate(-4108.272 -79.068)" fill="#fff"/>
    <path id="Path_1445" data-name="Path 1445" d="M4372.749,1635.105h-22.112c0-77.072,62.7-139.783,139.785-139.783A139.9,139.9,0,0,1,4605.6,1555.9l-18.2,12.547a117.677,117.677,0,0,0-214.648,66.658" transform="translate(-4117.09 -202.208)" fill="#fff"/>
    <path id="Path_1446" data-name="Path 1446" d="M4485.205,1511.966a117.8,117.8,0,0,1-117.658,117.67l-.3-.008v22.113l.3.008c77.07,0,139.771-62.7,139.771-139.783Z" transform="translate(-3994.217 -79.068)" fill="#e9edf5"/>
    <path id="Path_1447" data-name="Path 1447" d="M4420.083,1702.39l-30.743-30.737a99.7,99.7,0,0,1,0-140.993l30.743-30.747,30.75,30.747a99.7,99.7,0,0,1,0,140.993Z" transform="translate(-4046.766 -168.25)" fill="#aaf471"/>
    <path id="Path_1448" data-name="Path 1448" d="M4398.291,1530.66l-30.744-30.747-.3.294V1702.1l.3.293,30.744-30.737a99.69,99.69,0,0,0,0-140.993" transform="translate(-3994.217 -168.25)" fill="#77db56"/>
    <path id="Path_1449" data-name="Path 1449" d="M4470.747,1559.078a99.143,99.143,0,0,0-14.152-22.147l-23.674,23.684v-47.871l-12.836-12.833-12.83,12.833v47.871l-23.667-23.693a99.375,99.375,0,0,0-14.148,22.156l37.815,37.818v32.72L4361.625,1584a100.083,100.083,0,0,0,.456,36.742l45.173,45.184v23.65l12.83,12.817,12.836-12.817v-23.65l45.173-45.184a100.062,100.062,0,0,0,.456-36.742l-45.629,45.62V1596.9Z" transform="translate(-4046.768 -168.257)" fill="#77db56"/>
    <path id="Path_1450" data-name="Path 1450" d="M4426,1584l-45.628,45.629V1596.9l37.826-37.826a99.465,99.465,0,0,0-14.152-22.139l-23.674,23.676v-47.854l-12.837-12.842-.291.295v201.9l.291.293,12.837-12.833v-23.641l45.172-45.184A100.06,100.06,0,0,0,4426,1584" transform="translate(-3994.217 -168.257)" fill="#60c939"/>
    <path id="Path_1451" data-name="Path 1451" d="M4475.473,1518.578l-3.712,23.4a139.826,139.826,0,0,0-104.228-46.654l-.291.009v22.114l.291-.009a117.713,117.713,0,0,1,86.532,37.944l-24.017-3.8-3.463,21.835,61.058,9.675,9.666-61.048Z" transform="translate(-3994.217 -202.208)" fill="#e9edf5"/>
  </g>
</svg>
