<svg xmlns="http://www.w3.org/2000/svg" width="343.637" height="343.628" viewBox="0 0 343.637 343.628">
  <g id="Group_721" data-name="Group 721" transform="translate(-4071.965 -1488.871)">
    <path id="Path_1470" data-name="Path 1470" d="M4192.3,1506.114A103.087,103.087,0,1,1,4089.211,1609.2,103.09,103.09,0,0,1,4192.3,1506.114" transform="translate(114.486 114.482)" fill="#ffdaaa"/>
    <path id="Path_1471" data-name="Path 1471" d="M4210.775,1609.2a103.09,103.09,0,0,1-103.1,103.087c-1.888,0-3.835-.061-5.723-.168a103.091,103.091,0,0,0,0-205.838c1.888-.115,3.835-.169,5.723-.169a103.09,103.09,0,0,1,103.1,103.088" transform="translate(199.099 114.482)" fill="#ffc477"/>
    <path id="Path_1472" data-name="Path 1472" d="M4195.839,1546.9l-11.344,2.8,6.021,10.03-16.21,16.2-10.024-6.012-2.81,11.336h-22.909l-2.8-11.336-10.021,6.012-16.21-16.2,6.014-10.03-11.337-2.8v-22.909l11.337-2.8-6.014-10.029,16.21-16.21,10.021,6.019,2.8-11.344h22.909l2.81,11.344,10.024-6.019,16.21,16.21-6.021,10.029,11.344,2.8Z" transform="translate(214.036 4.971)" fill="#c0ab91"/>
    <path id="Path_1473" data-name="Path 1473" d="M4125.139,1493.369a17.184,17.184,0,1,1-17.186,17.18,17.184,17.184,0,0,1,17.186-17.18" transform="translate(238.914 29.862)" fill="#ffde55"/>
    <path id="Path_1474" data-name="Path 1474" d="M4241.33,1608.52a75.175,75.175,0,0,1-5.614,13.627l8.133,11.4,7.211,10.144-24.274,24.278-10.14-7.219-11.4-8.135a75.606,75.606,0,0,1-13.628,5.621l-4.354,26.11H4152.9l-4.354-26.11a75.519,75.519,0,0,1-13.628-5.621l-21.54,15.354-24.278-24.278,15.348-21.541a83.571,83.571,0,0,1-5.614-13.627l-26.12-4.354v-34.36l26.12-4.362a96.372,96.372,0,0,1,5.614-13.628l-15.348-21.534L4113.378,1506l21.54,15.354a73.866,73.866,0,0,1,13.628-5.616l4.354-26.117h34.358l4.354,26.117a73.949,73.949,0,0,1,13.628,5.616L4226.786,1506l24.274,24.283-15.344,21.534a75.2,75.2,0,0,1,5.614,13.628l26.109,4.362v34.36Z" transform="translate(4.979 4.973)" fill="#57a4ff"/>
    <path id="Path_1475" data-name="Path 1475" d="M4138.986,1535.707l-28.639,63v-40.1h-28.639l28.639-63v40.09Z" transform="translate(64.709 44.791)" fill="#ffde55"/>
    <path id="Path_1476" data-name="Path 1476" d="M4164.351,1578.386l-11.333,2.8,6.011,10.022-16.211,16.21-10.021-6.012-2.813,11.336h-22.909l-2.8-11.336-10.018,6.012-16.21-16.21,6.017-10.022-11.344-2.8v-22.91l11.344-2.8-6.017-10.03,16.21-16.21,10.018,6.012,2.8-11.336h22.909l2.813,11.336,10.021-6.012,16.211,16.21-6.011,10.03,11.333,2.8Z" transform="translate(4.979 214.025)" fill="#c0ab91"/>
    <path id="Path_1477" data-name="Path 1477" d="M4093.642,1524.858a17.18,17.18,0,1,1-17.179,17.18,17.185,17.185,0,0,1,17.179-17.18" transform="translate(29.87 238.914)" fill="#ffde55"/>
    <path id="Path_1478" data-name="Path 1478" d="M4114.614,1500.322H4163.1v-11.45h-51.548a5.738,5.738,0,0,0-4.764,2.543l-11.453,17.187,9.525,6.356Z" transform="translate(155.146 0)"/>
    <path id="Path_1479" data-name="Path 1479" d="M4133.2,1545.069h-48.486v11.459h51.547a5.728,5.728,0,0,0,4.768-2.551l11.45-17.181-9.525-6.355Z" transform="translate(84.618 275.972)"/>
    <path id="Path_1480" data-name="Path 1480" d="M4306.779,1614.867a107.523,107.523,0,0,0-56.454,15.92l-2.969-4.163a80.2,80.2,0,0,0,3.323-8.06l22.681-3.781a5.722,5.722,0,0,0,4.781-5.645v-34.36a5.72,5.72,0,0,0-4.781-5.645l-22.681-3.79a80.032,80.032,0,0,0-3.323-8.051l13.351-18.708a5.718,5.718,0,0,0-.608-7.372l-24.3-24.3a5.729,5.729,0,0,0-7.379-.612l-18.7,13.353a79.631,79.631,0,0,0-8.057-3.3l-3.776-22.673a5.721,5.721,0,0,0-5.653-4.812h-34.358a5.72,5.72,0,0,0-5.647,4.782l-3.779,22.672a80.861,80.861,0,0,0-8.057,3.33l-18.7-13.353a5.73,5.73,0,0,0-7.379.612l-24.3,24.3a5.723,5.723,0,0,0-.611,7.372l13.42,18.784a75.437,75.437,0,0,0-3.283,7.96l-22.787,3.8a5.717,5.717,0,0,0-4.781,5.645v34.36a5.719,5.719,0,0,0,4.781,5.645l22.78,3.8a82.96,82.96,0,0,0,3.23,8.022l-13.36,18.723a5.732,5.732,0,0,0,.611,7.379l24.3,24.3a5.739,5.739,0,0,0,7.379.611l18.7-13.352a80.808,80.808,0,0,0,8.057,3.323l3.779,22.68a5.727,5.727,0,0,0,5.647,4.782h34.358a5.733,5.733,0,0,0,5.653-4.782l3.776-22.68a79.814,79.814,0,0,0,8.057-3.323l4.163,2.963a107.545,107.545,0,0,0-15.919,56.46,108.817,108.817,0,1,0,108.818-108.817m-99.27,37.668a68.023,68.023,0,0,1-12.6,5.194,5.713,5.713,0,0,0-4,4.545l-3.531,21.32h-24.658l-3.551-21.32a5.735,5.735,0,0,0-4.011-4.545,68.217,68.217,0,0,1-12.6-5.194,5.739,5.739,0,0,0-6.044.381l-17.576,12.559-17.411-17.432,12.56-17.584a5.753,5.753,0,0,0,.38-6.043,77.059,77.059,0,0,1-5.283-12.855,5.738,5.738,0,0,0-4.454-3.721l-21.322-3.552v-24.659l21.322-3.552a5.728,5.728,0,0,0,4.443-3.728,93.4,93.4,0,0,1,5.426-13.1,5.736,5.736,0,0,0-.513-5.789l-12.56-17.585,17.44-17.433,17.576,12.551a5.726,5.726,0,0,0,6.037.39,68.41,68.41,0,0,1,12.6-5.2,5.722,5.722,0,0,0,4.011-4.538l3.521-21.32h24.658l3.554,21.32a5.723,5.723,0,0,0,4.007,4.538,68.378,68.378,0,0,1,12.6,5.2,5.731,5.731,0,0,0,6.041-.39l17.576-12.551,17.434,17.433-12.551,17.585a5.717,5.717,0,0,0-.383,6.034,69.094,69.094,0,0,1,5.2,12.6,5.712,5.712,0,0,0,4.536,4.018l21.318,3.545v24.665l-21.318,3.552a5.721,5.721,0,0,0-4.536,4,68.731,68.731,0,0,1-5.2,12.6,5.717,5.717,0,0,0,.383,6.034l12.551,17.578-17.434,17.439-17.576-12.557a5.758,5.758,0,0,0-6.074-.436m105,168.216v-16.891h-11.459v16.891a97.327,97.327,0,0,1-91.338-91.339H4226.6v-11.459h-16.974a95.9,95.9,0,0,1,13.592-44.061l5.2,3.719a5.738,5.738,0,0,0,7.379-.611l24.3-24.3a5.727,5.727,0,0,0,.608-7.379l-3.719-5.2a95.95,95.95,0,0,1,44.062-13.59v16.974h11.459v-16.89a97.335,97.335,0,0,1,91.345,91.338h-16.888v11.459h16.888a97.342,97.342,0,0,1-91.345,91.339" transform="translate(0.006 0)"/>
    <path id="Path_1481" data-name="Path 1481" d="M4113.417,1510.613h-11.459v68.727a5.731,5.731,0,0,0,5.73,5.729H4153.5V1573.61h-40.088Z" transform="translate(199.099 144.343)"/>
    <path id="Path_1482" data-name="Path 1482" d="M4143.963,1534.958h-22.909v-34.367a5.726,5.726,0,0,0-10.937-2.369l-28.638,63a5.723,5.723,0,0,0,5.208,8.1h22.908v34.367a5.723,5.723,0,0,0,4.517,5.591,5.413,5.413,0,0,0,1.213.13,5.734,5.734,0,0,0,5.217-3.362l28.632-63a5.716,5.716,0,0,0-2.843-7.578,5.632,5.632,0,0,0-2.367-.512m-22.909,42.281v-13.651a5.725,5.725,0,0,0-5.729-5.721h-19.738l14.008-30.831v13.643a5.732,5.732,0,0,0,5.73,5.729h19.738Z" transform="translate(59.733 39.82)"/>
    <rect id="Rectangle_1122" data-name="Rectangle 1122" width="11.458" height="11.451" transform="translate(4169.333 1511.78)"/>
    <rect id="Rectangle_1123" data-name="Rectangle 1123" width="11.459" height="11.459" transform="translate(4114.298 1539.311) rotate(-45)"/>
    <rect id="Rectangle_1124" data-name="Rectangle 1124" width="11.458" height="11.458" transform="translate(4094.876 1586.229)"/>
    <rect id="Rectangle_1125" data-name="Rectangle 1125" width="11.457" height="11.457" transform="matrix(0.707, -0.707, 0.707, 0.707, 4114.285, 1644.589)"/>
    <rect id="Rectangle_1126" data-name="Rectangle 1126" width="11.458" height="11.451" transform="translate(4169.333 1660.686)"/>
    <rect id="Rectangle_1127" data-name="Rectangle 1127" width="11.459" height="11.459" transform="matrix(0.707, -0.707, 0.707, 0.707, 4219.56, 1644.604)"/>
    <rect id="Rectangle_1128" data-name="Rectangle 1128" width="11.458" height="11.458" transform="translate(4243.783 1586.229)"/>
    <rect id="Rectangle_1129" data-name="Rectangle 1129" width="11.454" height="11.454" transform="matrix(0.707, -0.707, 0.707, 0.707, 4219.579, 1539.328)"/>
    <path id="Path_1483" data-name="Path 1483" d="M4130.112,1492.619a22.909,22.909,0,1,0,22.909,22.91,22.912,22.912,0,0,0-22.909-22.91m0,34.368a11.454,11.454,0,1,1,11.459-11.458,11.46,11.46,0,0,1-11.459,11.458" transform="translate(233.942 24.883)"/>
    <path id="Path_1484" data-name="Path 1484" d="M4202.207,1523.4l-3.825-.956,2.033-3.384a5.724,5.724,0,0,0-.869-7l-16.2-16.195a5.719,5.719,0,0,0-7-.863l-3.382,2.032-.956-3.834a5.73,5.73,0,0,0-5.561-4.331h-22.909a5.725,5.725,0,0,0-5.554,4.331l-.956,3.834-3.382-2.032a5.723,5.723,0,0,0-7,.863l-16.2,16.195a5.732,5.732,0,0,0-.866,7l2.033,3.384-3.829.956a5.737,5.737,0,0,0-4.338,5.561v22.909a5.728,5.728,0,0,0,4.338,5.554l3.829.955-2.033,3.384a5.742,5.742,0,0,0,.866,7l16.2,16.195a5.733,5.733,0,0,0,7,.864l3.382-2.032.956,3.834a5.734,5.734,0,0,0,5.554,4.332h22.909a5.739,5.739,0,0,0,5.561-4.332l.956-3.834,3.382,2.032a5.729,5.729,0,0,0,7-.864l16.2-16.195a5.733,5.733,0,0,0,.869-7l-2.033-3.384,3.825-.955a5.727,5.727,0,0,0,4.341-5.554V1528.96a5.736,5.736,0,0,0-4.341-5.561m-7.115,23.993-7,1.727a5.712,5.712,0,0,0-4.152,6.944,5.49,5.49,0,0,0,.648,1.558l3.7,6.172-9.869,9.878-6.183-3.705a5.715,5.715,0,0,0-7.859,1.963,5.563,5.563,0,0,0-.642,1.551l-1.749,7.02h-13.965l-1.719-6.989a5.728,5.728,0,0,0-6.943-4.164,6,6,0,0,0-1.557.65l-6.179,3.7-9.876-9.87,3.7-6.179a5.729,5.729,0,0,0-1.954-7.86,5.841,5.841,0,0,0-1.561-.641l-7.019-1.75v-13.964l6.989-1.718a5.722,5.722,0,0,0,3.515-8.5l-3.7-6.179,9.869-9.877,6.176,3.712a5.739,5.739,0,0,0,7.862-1.963,5.806,5.806,0,0,0,.642-1.559l1.719-6.989h13.962l1.719,6.989a5.745,5.745,0,0,0,6.946,4.171,5.923,5.923,0,0,0,1.557-.649l6.186-3.712,9.869,9.877-3.7,6.179a5.735,5.735,0,0,0,1.964,7.861,5.47,5.47,0,0,0,1.547.641l7,1.718Z" transform="translate(209.053 0)"/>
    <path id="Path_1485" data-name="Path 1485" d="M4098.622,1524.108a22.909,22.909,0,1,0,22.909,22.909,22.912,22.912,0,0,0-22.909-22.909m0,34.368a11.455,11.455,0,1,1,11.459-11.459,11.464,11.464,0,0,1-11.459,11.459" transform="translate(24.891 233.935)"/>
    <path id="Path_1486" data-name="Path 1486" d="M4168.925,1593.25l-2.034-3.384,3.829-.962a5.708,5.708,0,0,0,4.338-5.545v-22.91a5.733,5.733,0,0,0-4.338-5.561l-3.829-.955,2.034-3.384a5.722,5.722,0,0,0-.873-7l-16.194-16.194a5.718,5.718,0,0,0-7-.864l-3.386,2.024-.956-3.827a5.728,5.728,0,0,0-5.561-4.331h-22.909a5.726,5.726,0,0,0-5.551,4.331l-.956,3.827-3.386-2.024a5.718,5.718,0,0,0-7,.864l-16.2,16.194a5.729,5.729,0,0,0-.863,7l2.037,3.384-3.832.955a5.736,5.736,0,0,0-4.341,5.561v22.91a5.712,5.712,0,0,0,4.341,5.545l3.832.962-2.037,3.384a5.728,5.728,0,0,0,.863,7l16.2,16.2a5.729,5.729,0,0,0,7,.864l3.386-2.032.956,3.834a5.734,5.734,0,0,0,5.551,4.331h22.909a5.736,5.736,0,0,0,5.561-4.331l.956-3.834,3.386,2.032a5.728,5.728,0,0,0,7-.864l16.194-16.2a5.721,5.721,0,0,0,.873-7m-5.327-14.368-6.989,1.718a5.726,5.726,0,0,0-4.163,6.951,5.662,5.662,0,0,0,.648,1.551l3.7,6.179-9.869,9.87-6.179-3.7a5.723,5.723,0,0,0-7.862,1.956,5.914,5.914,0,0,0-.642,1.558l-1.749,7.019h-13.962l-1.719-6.989a5.72,5.72,0,0,0-8.5-3.514l-6.179,3.7-9.9-9.869,3.7-6.18a5.725,5.725,0,0,0-1.957-7.861,5.665,5.665,0,0,0-1.557-.641l-6.989-1.749v-13.964l6.989-1.719a5.721,5.721,0,0,0,3.515-8.5l-3.7-6.179,9.873-9.877,6.179,3.712a5.735,5.735,0,0,0,7.859-1.962,5.945,5.945,0,0,0,.645-1.56l1.716-6.989h13.965l1.716,6.989a5.736,5.736,0,0,0,8.5,3.522l6.189-3.712,9.869,9.877-3.707,6.179a5.725,5.725,0,0,0,1.964,7.853,5.4,5.4,0,0,0,1.551.649l7,1.719Z" transform="translate(0.002 209.052)"/>
  </g>
</svg>
