<svg xmlns="http://www.w3.org/2000/svg" width="388.394" height="352.642" viewBox="0 0 388.394 352.642">
  <g id="Group_716" data-name="Group 716" transform="translate(-4252.086 -1489.438)">
    <path id="Path_1452" data-name="Path 1452" d="M4291.959,1593.289a5.058,5.058,0,0,0,2.422-5.349,56.652,56.652,0,0,1,55.631-67.463h.129a5.086,5.086,0,0,0,4.72-3.091,45.131,45.131,0,0,1,40.777-27.252c25.151-.338,46.485,20.826,46.485,45.977v249.342c0,25.151-21.333,46.315-46.485,45.96a45.078,45.078,0,0,1-40.777-27.235,5.111,5.111,0,0,0-4.72-3.107h-.129a56.653,56.653,0,0,1-55.631-67.464,5.039,5.039,0,0,0-2.422-5.332,77.731,77.731,0,0,1,0-134.989" transform="translate(4.8 4.759)" fill="#60b8ff"/>
    <path id="Path_1453" data-name="Path 1453" d="M4377.729,1804.174a5.114,5.114,0,0,0-4.72-3.107h-.125a56.669,56.669,0,0,1-55.634-67.464,5.014,5.014,0,0,0-2.422-5.324,77.736,77.736,0,0,1,0-135,5.038,5.038,0,0,0,2.422-5.341,56.668,56.668,0,0,1,55.634-67.463h.125a5.1,5.1,0,0,0,4.72-3.107,45.183,45.183,0,0,1,29.878-25.74,43.791,43.791,0,0,0-11.969-1.494,45.109,45.109,0,0,0-40.771,27.234,5.111,5.111,0,0,1-4.72,3.107h-.125a56.685,56.685,0,0,0-55.642,67.463,5.028,5.028,0,0,1-2.415,5.341,77.73,77.73,0,0,0,0,135,5,5,0,0,1,2.415,5.324,56.685,56.685,0,0,0,55.642,67.464h.125a5.114,5.114,0,0,1,4.72,3.107,45.1,45.1,0,0,0,40.778,27.243,44.129,44.129,0,0,0,11.962-1.5,45.166,45.166,0,0,1-29.878-25.741" transform="translate(4.8 4.765)" fill="#22a7ff"/>
    <path id="Path_1454" data-name="Path 1454" d="M4426.176,1593.289a5.033,5.033,0,0,1-2.423-5.349,56.666,56.666,0,0,0-55.638-67.463h-.125a5.081,5.081,0,0,1-4.716-3.091,45.143,45.143,0,0,0-40.777-27.252c-25.155-.338-45.733,20.826-45.733,45.977v249.342c0,25.151,20.579,46.315,45.733,45.96a45.089,45.089,0,0,0,40.777-27.235,5.106,5.106,0,0,1,4.716-3.107h.125a56.667,56.667,0,0,0,55.638-67.464,5.024,5.024,0,0,1,2.423-5.332,77.731,77.731,0,0,0,0-134.989" transform="translate(169.401 4.759)" fill="#ff646f"/>
    <path id="Path_1455" data-name="Path 1455" d="M4299.625,1785.446V1536.113a46.249,46.249,0,0,1,33.793-44.467,44.652,44.652,0,0,0-10.921-1.51c-25.155-.345-45.733,20.826-45.733,45.977v249.333c0,25.151,20.579,46.323,45.733,45.977a44.96,44.96,0,0,0,10.921-1.51,46.249,46.249,0,0,1-33.793-44.467" transform="translate(169.408 4.759)" fill="#ff4755"/>
    <path id="Path_1456" data-name="Path 1456" d="M4332.891,1498.7a66.13,66.13,0,0,0-33.385,122.233,10.19,10.19,0,0,1,4.845,8.658v9.6a10.163,10.163,0,0,0,10.169,10.168h39.947a10.17,10.17,0,0,0,10.169-10.168v-9.6a10.224,10.224,0,0,1,4.856-8.674,66.126,66.126,0,0,0-36.6-122.218" transform="translate(111.675 63.439)" fill="#ffe55a"/>
    <path id="Path_1457" data-name="Path 1457" d="M4326.378,1639.188v-9.6a10.2,10.2,0,0,0-4.841-8.651,66.123,66.123,0,0,1,24-121.329,66.134,66.134,0,0,0-46.034,121.329,10.2,10.2,0,0,1,4.838,8.651v9.61a10.162,10.162,0,0,0,10.169,10.161h22.035a10.166,10.166,0,0,1-10.169-10.168" transform="translate(111.683 63.437)" fill="#ffd500"/>
    <path id="Path_1458" data-name="Path 1458" d="M4274.637,1523.184v11.161a10.517,10.517,0,0,0,10.484,10.483h12.52a10.517,10.517,0,0,0,10.484-10.483v-11.161Z" transform="translate(154.788 231.646)" fill="#4f66d1"/>
    <path id="Path_1459" data-name="Path 1459" d="M4296.675,1534.344v-11.161h-22.038v11.161a10.517,10.517,0,0,0,10.484,10.483h12.52a10.444,10.444,0,0,0,4.759-1.157,10.5,10.5,0,0,1-5.725-9.327" transform="translate(154.788 231.646)" fill="#314dca"/>
    <path id="Path_1460" data-name="Path 1460" d="M4317.82,1520.511h-34.072a10.517,10.517,0,0,0-10.484,10.484v1.557a10.512,10.512,0,0,0,10.484,10.484h34.072a10.512,10.512,0,0,0,10.484-10.484v-1.557a10.517,10.517,0,0,0-10.484-10.484" transform="translate(145.39 213.304)" fill="#d9edff"/>
    <path id="Path_1461" data-name="Path 1461" d="M4317.82,1525.4h-34.072a10.477,10.477,0,0,1-8.463-4.341,10.4,10.4,0,0,0-2.021,6.15v1.565a10.516,10.516,0,0,0,10.484,10.483h34.072a10.516,10.516,0,0,0,10.484-10.483v-1.565a10.4,10.4,0,0,0-2.025-6.15,10.475,10.475,0,0,1-8.459,4.341" transform="translate(145.39 217.086)" fill="#b4dbff"/>
    <path id="Path_1462" data-name="Path 1462" d="M4317.82,1517.743h-34.072a10.517,10.517,0,0,0-10.484,10.484v1.557a10.512,10.512,0,0,0,10.484,10.484h34.072a10.512,10.512,0,0,0,10.484-10.484v-1.557a10.517,10.517,0,0,0-10.484-10.484" transform="translate(145.39 194.303)" fill="#d9edff"/>
    <path id="Path_1463" data-name="Path 1463" d="M4317.82,1522.634h-34.072a10.475,10.475,0,0,1-8.463-4.341,10.378,10.378,0,0,0-2.021,6.15v1.565a10.517,10.517,0,0,0,10.484,10.484h34.072a10.517,10.517,0,0,0,10.484-10.484v-1.565a10.382,10.382,0,0,0-2.025-6.15,10.472,10.472,0,0,1-8.459,4.341" transform="translate(145.39 198.078)" fill="#b4dbff"/>
    <path id="Path_1464" data-name="Path 1464" d="M4598.941,1593.565a62.409,62.409,0,0,0-61.077-73.786,50.846,50.846,0,0,0-30.153-27.652,5.689,5.689,0,1,0-3.657,10.775c17.98,6.11,27.85,24.057,27.85,41.509a5.693,5.693,0,0,0,11.386,0,58.184,58.184,0,0,0-1.6-13.071,50.977,50.977,0,0,1,46.567,56.689,60.923,60.923,0,0,0-14.238-4.459,27.205,27.205,0,0,0-13.039-18.286,5.686,5.686,0,1,0-5.7,9.839,15.732,15.732,0,0,1,.007,27.243,5.692,5.692,0,1,0,5.7,9.854,27.29,27.29,0,0,0,12.764-17.121c19.4,4.136,55.427,27.825,55.427,70.664a72.273,72.273,0,0,1-35.85,62.272c-.755.354-10.137,6.332-19.577,8.353a27.186,27.186,0,0,0-12.764-17.121,5.685,5.685,0,1,0-5.7,9.838,15.745,15.745,0,0,1-.007,27.236,5.7,5.7,0,1,0,5.7,9.863,27.256,27.256,0,0,0,13.032-18.3,60.589,60.589,0,0,0,14.245-4.451,51.009,51.009,0,0,1-46.582,56.744,58.311,58.311,0,0,0,1.614-13.135,5.693,5.693,0,0,0-11.386,0c0,22.737-16.163,43.311-39.969,43.65-22.121.33-39.969-18.49-39.969-40.284v-8.038h.576a16.193,16.193,0,0,0,16.17-16.178v-4.875a16.276,16.276,0,0,0,10.781-15.25v-.8a16.369,16.369,0,0,0-3.872-10.491,16.39,16.39,0,0,0,3.872-10.484v-.811a16.4,16.4,0,0,0-2.647-8.855,15.872,15.872,0,0,0,5.267-11.8v-9.6a4.563,4.563,0,0,1,2.186-3.838,72.28,72.28,0,0,0,32.018-44.978,5.691,5.691,0,0,0-11.1-2.532,60.776,60.776,0,0,1-26.951,37.852h-.007a15.98,15.98,0,0,0-6.34,7.456l-.046.142c-1.424,3.507-1.142,5.214-1.142,15.5a4.485,4.485,0,0,1-4.483,4.475h-14.285v-27.613a23.1,23.1,0,0,0,18.067-22.508v-8.219a5.693,5.693,0,0,0-1.761-11.1h-44.266a5.689,5.689,0,0,0-1.478,11.183v8.141a23.112,23.112,0,0,0,18.07,22.508v27.613H4426.31a4.472,4.472,0,0,1-4.48-4.475c0-10.373.046-10.287-.125-11.632a15.794,15.794,0,0,0-7.393-11.443,60.171,60.171,0,0,1-19.867-82.154c29.124-48.43,101.486-34.2,111.308,19.992a5.7,5.7,0,0,0,11.21-2.021,71.839,71.839,0,0,0-64.988-58.687v-15.808A40.424,40.424,0,0,1,4480.9,1502.3a5.693,5.693,0,0,0-3.156-10.939,51.491,51.491,0,0,0-31.488,26.205c-19.874-39.025-74.463-36.657-91.563,2.21a62.414,62.414,0,0,0-61.073,73.786c-55.434,32.183-55.33,112.269,0,144.38a62.436,62.436,0,0,0,61.073,73.81c17.029,38.671,71.644,41.408,91.585,2.147,19.841,39.056,74.474,36.729,91.584-2.147a62.432,62.432,0,0,0,61.077-73.81c55.437-32.182,55.33-112.26,0-144.38M4433.91,1657.2v-7.936h24.736v7.936a11.7,11.7,0,0,1-11.7,11.687h-1.338a11.706,11.706,0,0,1-11.7-11.687m23.423,109.011a4.794,4.794,0,0,1-4.792,4.8h-12.52a4.794,4.794,0,0,1-4.792-4.8v-3.948h22.1Zm5.983-47.5a4.807,4.807,0,0,1,4.8,4.789v.811a4.8,4.8,0,0,1-4.8,4.789h-34.072a4.787,4.787,0,0,1-4.788-4.789v-.811a4.8,4.8,0,0,1,4.788-4.789Zm0,21.778a4.8,4.8,0,0,1,4.8,4.8v.8a4.819,4.819,0,0,1-5.088,4.8h-33.489a4.814,4.814,0,0,1-5.081-4.8v-.8a4.794,4.794,0,0,1,4.788-4.8Zm-62.687,90.224c-23.831-.339-39.969-20.96-39.969-43.65a5.695,5.695,0,0,0-11.389,0,58.1,58.1,0,0,0,1.621,13.135,51.006,51.006,0,0,1-46.581-56.744,60.5,60.5,0,0,0,14.234,4.451,27.232,27.232,0,0,0,13.039,18.3,5.7,5.7,0,0,0,5.7-9.863,15.738,15.738,0,0,1-.007-27.228,5.69,5.69,0,1,0-5.7-9.846,27.206,27.206,0,0,0-12.763,17.121c-19.008-4.058-55.42-27.125-55.42-70.624,0-43.893,37.128-66.763,55.42-70.664a27.289,27.289,0,0,0,12.763,17.121,5.693,5.693,0,1,0,5.7-9.854,15.751,15.751,0,0,1,.007-27.243,5.686,5.686,0,1,0-5.7-9.839,27.184,27.184,0,0,0-13.039,18.286,61.053,61.053,0,0,0-14.241,4.459,50.974,50.974,0,0,1,46.582-56.689,57.928,57.928,0,0,0-1.614,13.071,5.691,5.691,0,0,0,11.382,0,54.07,54.07,0,0,1,4.3-19.677l.015-.047.032-.072a39.454,39.454,0,0,1,36.161-23.8c22.085,0,39.429,18.859,39.429,40.275v15.776a71.821,71.821,0,0,0-32.312,132.543,4.518,4.518,0,0,1,2.172,3.83v9.6a15.892,15.892,0,0,0,5.26,11.8,16.336,16.336,0,0,0-2.641,8.855v.811a16.364,16.364,0,0,0,3.868,10.484,16.466,16.466,0,0,0-3.868,10.491v.8a16.266,16.266,0,0,0,10.771,15.25v4.875a16.2,16.2,0,0,0,16.181,16.178h.569v8.038c.007,21.636-17.651,40.582-39.962,40.284" transform="translate(0.001 -0.001)"/>
  </g>
</svg>
