<svg xmlns="http://www.w3.org/2000/svg" width="360.299" height="330.055" viewBox="0 0 360.299 330.055">
  <g id="Group_722" data-name="Group 722" transform="translate(-3974.749 -1488.194)">
    <path id="Path_1487" data-name="Path 1487" d="M4064.039,1488.935h35.005a21.771,21.771,0,0,1,19.969,13.122l2.238,5.164h10.563a32.452,32.452,0,0,1,32.447,32.454V1659a23.045,23.045,0,0,1-23.047,23.041H4024.793A23.042,23.042,0,0,1,4001.744,1659V1551.227a62.3,62.3,0,0,1,62.295-62.292" transform="translate(165.509 4.537)" fill="#475d6d"/>
    <path id="Path_1488" data-name="Path 1488" d="M4063.748,1507.227h-10.562l-2.238-5.178a21.759,21.759,0,0,0-19.969-13.114h-18.134a21.777,21.777,0,0,1,19.976,13.114l2.232,5.178h10.569a32.448,32.448,0,0,1,32.447,32.447V1659a23.052,23.052,0,0,1-23.047,23.048h18.127A23.048,23.048,0,0,0,4096.195,1659V1539.674a32.446,32.446,0,0,0-32.447-32.447" transform="translate(233.575 4.537)" fill="#2c3f4f"/>
    <path id="Path_1489" data-name="Path 1489" d="M4110.723,1505.6l-66.387-15.8a20.984,20.984,0,0,0-19.668,5.569l-18.877,18.885h-8a20.947,20.947,0,0,0-20.954,20.945s-1.054,25.715,0,34.195c1.256,10.077,9.97,39.379,9.97,39.379H4128.4l26.535-105.009a5.808,5.808,0,0,0-9.25-5.962,40.93,40.93,0,0,1-34.964,7.795" transform="translate(9.914 6.38)" fill="#f9dc6a"/>
    <path id="Path_1490" data-name="Path 1490" d="M4030.686,1491.543h0a40.944,40.944,0,0,1-8.929,5.392c-.035.185-.048.377-.1.57l-26.537,105.009H4013.4l26.528-105.009a5.8,5.8,0,0,0-9.243-5.962" transform="translate(124.916 12.641)" fill="#e5ac51"/>
    <path id="Path_1491" data-name="Path 1491" d="M4260.061,1518.54H3979.229v42.4h190.429v65.987H4297.8v-70.644a37.731,37.731,0,0,0-37.739-37.739" transform="translate(27.455 186.056)" fill="#2bb4f3"/>
    <path id="Path_1492" data-name="Path 1492" d="M4032.494,1518.54h-16.152a37.733,37.733,0,0,1,37.74,37.739v70.644h16.152v-70.644a37.731,37.731,0,0,0-37.74-37.739" transform="translate(255.023 186.056)" fill="#1687c4"/>
    <path id="Path_1493" data-name="Path 1493" d="M4133.4,1560.943v-4.664a37.736,37.736,0,0,0-37.739-37.739h-78.018a37.737,37.737,0,0,0-37.739,37.739v4.664Z" transform="translate(31.626 186.056)" fill="#1687c4"/>
    <path id="Path_1494" data-name="Path 1494" d="M4009.951,1513.221v45.834c0,12.559,22.733,25.232,22.733,25.232s22.742-12.672,22.742-25.232v-45.834Z" transform="translate(215.822 153.45)" fill="#f2a077"/>
    <path id="Path_1495" data-name="Path 1495" d="M4160.9,1570.521v6.7a14.145,14.145,0,0,1-14.142,14.155h-4.805c-1.918,36.927-36.163,62.564-69.76,56.717h0a60.608,60.608,0,0,1-51.246-56.717h-4.807A14.151,14.151,0,0,1,4002,1577.217v-6.7a14.145,14.145,0,0,1,14.147-14.149h4.713V1525.65c0-.82.016-1.633.057-2.439a135.74,135.74,0,0,0,98.292-18.684,131.7,131.7,0,0,0,13.223-9.578,53.658,53.658,0,0,1,9.613,30.7v30.722h4.72a14.139,14.139,0,0,1,14.142,14.149" transform="translate(167.056 41.418)" fill="#fca"/>
    <path id="Path_1496" data-name="Path 1496" d="M4086.4,1556.366h-4.72v-12.544h-.007c0-20.816,0-19.183-.006-19.476a53.627,53.627,0,0,0-9.593-29.4,133.783,133.783,0,0,1-13.222,9.57,53.871,53.871,0,0,1,4.3,21.123v30.722l-.092,35a60.614,60.614,0,0,1-51.224,56.716c30.656,5.335,61.85-15.546,68.531-47.3h.007q.47-2.267.787-4.6l.013-.15c.086-.649.156-1.32.222-1.982.02-.164.035-.335.05-.5.062-.727.121-1.454.156-2.19h4.8a14.147,14.147,0,0,0,14.151-14.149v-6.7a14.158,14.158,0,0,0-14.151-14.149" transform="translate(227.413 41.423)" fill="#f2a077"/>
    <path id="Path_1497" data-name="Path 1497" d="M4130.492,1626.923H3977v-70.644a37.736,37.736,0,0,1,37.739-37.739h78.018a37.741,37.741,0,0,1,37.739,37.739Z" transform="translate(13.771 186.056)" fill="#ff5a59"/>
    <path id="Path_1498" data-name="Path 1498" d="M4007.118,1518.54h-16.155a37.731,37.731,0,0,1,37.739,37.739v70.644h16.155v-70.644a37.733,37.733,0,0,0-37.739-37.739" transform="translate(99.407 186.056)" fill="#ce3a4c"/>
    <path id="Path_1499" data-name="Path 1499" d="M3984.569,1513.221v45.834a22.739,22.739,0,1,0,45.478,0v-45.834Z" transform="translate(60.211 153.45)" fill="#f2a077"/>
    <path id="Path_1500" data-name="Path 1500" d="M4135.526,1555.873v6.7a14.157,14.157,0,0,1-14.149,14.155h-4.808a60.469,60.469,0,0,1-10.367,30.858l-.015.014c-11.4,17.543-34.878,29.546-59.377,25.844h-.006a60.621,60.621,0,0,1-51.246-56.716h-4.8a14.145,14.145,0,0,1-14.142-14.155v-6.7a14.139,14.139,0,0,1,14.142-14.149h4.72v-22.279c16.253-1.1,21.508-6.083,21.508-22.106,0,0,20.682,36.841,81.135,25.857a159.245,159.245,0,0,0,18.54-4.564v23.092h4.715a14.151,14.151,0,0,1,14.149,14.149" transform="translate(11.446 56.065)" fill="#fca"/>
    <path id="Path_1501" data-name="Path 1501" d="M4061.026,1523.41h-4.716v-23.084a160.588,160.588,0,0,1-18.533,4.557v18.528l-.092,35a60.613,60.613,0,0,1-51.226,56.717c24.489,3.7,48.017-8.365,59.383-25.844l.009-.014c3.657-4.656,7.574-13.413,9.392-23.02h.035c.329-1.755.576-3.545.75-5.349l.02-.206c.079-.764.136-1.519.177-2.283h4.8a14.146,14.146,0,0,0,14.148-14.149v-6.7a14.151,14.151,0,0,0-14.148-14.149" transform="translate(71.798 74.379)" fill="#f2a077"/>
    <path id="Path_1502" data-name="Path 1502" d="M4001.5,1572.66h-12.857a13.154,13.154,0,0,1-13.149-13.157v-28.718a13.154,13.154,0,0,1,13.149-13.158H4001.5a9.668,9.668,0,0,1,9.664,9.671V1563a9.665,9.665,0,0,1-9.664,9.662" transform="translate(4.536 180.465)" fill="#fca"/>
    <path id="Path_1503" data-name="Path 1503" d="M4009.595,1515.234a29.831,29.831,0,0,0,55.269.007,5.279,5.279,0,0,0-9.786-3.965,19.267,19.267,0,0,1-35.692.008,5.279,5.279,0,0,0-9.791,3.95" transform="translate(211.281 121.308)"/>
    <path id="Path_1504" data-name="Path 1504" d="M4013.421,1516.447a5.277,5.277,0,0,0,5.276-5.277v-2.924a5.277,5.277,0,1,0-10.553,0v2.924a5.279,5.279,0,0,0,5.277,5.277" transform="translate(204.757 90.548)"/>
    <path id="Path_1505" data-name="Path 1505" d="M4021.931,1516.447a5.279,5.279,0,0,0,5.277-5.277v-2.924a5.278,5.278,0,1,0-10.556,0v2.924a5.28,5.28,0,0,0,5.279,5.277" transform="translate(256.915 90.548)"/>
    <path id="Path_1506" data-name="Path 1506" d="M4011.847,1533.835a29.7,29.7,0,0,0,27.633-18.592,5.283,5.283,0,0,0-9.791-3.972,19.262,19.262,0,0,1-35.687.015,5.278,5.278,0,1,0-9.789,3.95,29.818,29.818,0,0,0,27.633,18.6" transform="translate(55.668 121.306)"/>
    <path id="Path_1507" data-name="Path 1507" d="M3993.317,1511.165v-2.924a5.277,5.277,0,0,0-10.554,0v2.924a5.277,5.277,0,0,0,10.554,0" transform="translate(49.136 90.554)"/>
    <path id="Path_1508" data-name="Path 1508" d="M3996.548,1516.447a5.279,5.279,0,0,0,5.277-5.277v-2.924a5.277,5.277,0,1,0-10.554,0v2.924a5.279,5.279,0,0,0,5.277,5.277" transform="translate(101.295 90.548)"/>
    <path id="Path_1509" data-name="Path 1509" d="M4329.77,1564.137a5.279,5.279,0,0,0,5.279-5.277v-14.649a37.768,37.768,0,0,0-37.726-37.725h-7.094l-.857-1.99a27.031,27.031,0,0,0-24.818-16.3h-35.015a67.646,67.646,0,0,0-67.569,67.57v107.763a28.369,28.369,0,0,0,28.333,28.34h30.188v7.451H4095.527v-10.077a65.939,65.939,0,0,0,37.31-51.175,19.463,19.463,0,0,0,19.419-19.433v-6.7a19.311,19.311,0,0,0-4.542-12.451l12.145-48.08a5.278,5.278,0,0,0-10.233-2.589l-11.24,44.507a19.527,19.527,0,0,0-4.992-.812v-17.808a5.291,5.291,0,0,0-6.831-5.05c-28.926,8.872-54.271,8.408-73.3-1.354-14.256-7.318-20.175-17.4-20.217-17.472a5.273,5.273,0,0,0-9.878,2.581c0,13.072-2.8,15.9-16.6,16.83a5.288,5.288,0,0,0-4.919,5.27v17a19.361,19.361,0,0,0-5.527.977,174.278,174.278,0,0,1-4.137-18.363c-.82-6.611-.25-26.3.035-33.333l.009-.213a15.691,15.691,0,0,1,15.674-15.675h7.993a5.315,5.315,0,0,0,3.738-1.541l18.877-18.884a15.77,15.77,0,0,1,14.718-4.164l66.386,15.788a46.117,46.117,0,0,0,39.473-8.8.447.447,0,0,1,.621-.03.439.439,0,0,1,.219.571l-3.992,15.817a5.278,5.278,0,0,0,10.233,2.589l3.994-15.825a11.084,11.084,0,0,0-17.652-11.382,35.765,35.765,0,0,1-22.207,7.759,36.132,36.132,0,0,1-8.25-.964l-66.379-15.8a26.405,26.405,0,0,0-24.625,6.967l-17.336,17.336H4007.7a26.27,26.27,0,0,0-26.237,26.115c-.079,2.047-1.026,26.329.042,34.951.542,4.379,2.368,12.288,5.421,23.541a19.34,19.34,0,0,0-4.144,11.981v6.7a19.452,19.452,0,0,0,19.4,19.433,65.819,65.819,0,0,0,37.318,51.175v10.077h-11a43.443,43.443,0,0,0-9.492,1.049,14.941,14.941,0,0,0-12.972-7.546h-12.86a18.452,18.452,0,0,0-18.432,18.428v28.712a18.461,18.461,0,0,0,10.738,16.751v56.252a5.276,5.276,0,0,0,5.279,5.284h153.5a5.276,5.276,0,0,0,5.276-5.284v-70.629a42.925,42.925,0,0,0-14.841-32.469h85.785v2.638c0,15.219,22.856,28.391,25.46,29.845a5.255,5.255,0,0,0,5.134,0c2.6-1.455,25.443-14.627,25.443-29.845v-2.638h10.989a32.5,32.5,0,0,1,32.469,32.469v65.358h-14.8v-35.364a5.277,5.277,0,1,0-10.553,0v35.364H4202.39v-60.7a5.271,5.271,0,0,0-5.271-5.277h-31.662a5.277,5.277,0,1,0,0,10.555h26.377v60.7a5.276,5.276,0,0,0,5.285,5.277h128.143a5.273,5.273,0,0,0,5.277-5.277v-70.636a43.067,43.067,0,0,0-43.023-43.017h-10.989v-7.451h30.2a28.357,28.357,0,0,0,28.319-28.34v-79.75a5.278,5.278,0,1,0-10.556,0v11.944a19.316,19.316,0,0,0-10.113-3.208v-25.445a58.768,58.768,0,0,0-10.553-33.71,5.29,5.29,0,0,0-7.682-1.07,130.452,130.452,0,0,1-107.17,27.164,5.261,5.261,0,0,0-6.27,4.906c-.048.856-.07,1.747-.07,2.71v25.445a19.326,19.326,0,0,0-10.106,3.208v-39.957a57.079,57.079,0,0,1,57.009-57.016h35.015a16.472,16.472,0,0,1,15.126,9.934l2.24,5.177a5.27,5.27,0,0,0,4.84,3.181h10.563a27.2,27.2,0,0,1,27.17,27.171v14.649a5.279,5.279,0,0,0,5.277,5.277m-317.489,68.383a5.283,5.283,0,0,0-5.277-5.006h-4.792a8.887,8.887,0,0,1-8.872-8.879v-6.7a8.881,8.881,0,0,1,8.872-8.871h4.713a5.275,5.275,0,0,0,5.277-5.278v-17.515c11-1.576,17.2-5.861,19.884-14.212a68.2,68.2,0,0,0,15.668,11.267c24.645,12.979,53.335,10.077,75.078,4.365v16.1a5.279,5.279,0,0,0,5.276,5.278h4.716a8.878,8.878,0,0,1,8.87,8.871v6.7a8.885,8.885,0,0,1-8.87,8.879h-4.8a5.284,5.284,0,0,0-5.276,5.006,55.359,55.359,0,0,1-34.5,48.4l-.1.043a55.606,55.606,0,0,1-41.24,0c-.105-.043-.206-.086-.3-.122a55.233,55.233,0,0,1-34.317-48.322m55.24,62.97a66.342,66.342,0,0,0,17.45-2.352v19.368a17.457,17.457,0,1,1-34.914,0v-19.368a65.686,65.686,0,0,0,17.463,2.352M3985.3,1711.25a7.893,7.893,0,0,1,7.879-7.881h12.86a4.39,4.39,0,0,1,4.378,4.387v35.7a4.391,4.391,0,0,1-4.378,4.392h-12.86a7.9,7.9,0,0,1-7.879-7.88Zm153.689,31.086v65.358h-14.8v-35.364a5.277,5.277,0,1,0-10.553,0v35.364H4021.4v-35.364a5.278,5.278,0,0,0-10.556,0v35.364h-14.8v-49.3h10a14.953,14.953,0,0,0,14.94-14.939V1710.75a32.327,32.327,0,0,1,7.524-.883h11v2.638a28.012,28.012,0,1,0,56.025,0v-2.638h11a32.5,32.5,0,0,1,32.469,32.469m126.981-29.831c0,5.848-9.5,14.113-17.459,19.1-7.964-4.986-17.463-13.251-17.463-19.1v-19.368a65.644,65.644,0,0,0,17.457,2.352,66.458,66.458,0,0,0,17.465-2.352Zm58.52-48.978a17.79,17.79,0,0,1-17.764,17.778h-17.387c1.583-1.247,3.118-2.581,4.593-3.987a65.583,65.583,0,0,0,19.9-39.251,19.347,19.347,0,0,0,10.654-3.209Zm-150.164-51.589a8.886,8.886,0,0,1,8.876-8.871h4.707a5.274,5.274,0,0,0,5.276-5.278v-26.928a141.009,141.009,0,0,0,104.905-26.686,48.207,48.207,0,0,1,5.733,22.9v30.714a5.275,5.275,0,0,0,5.277,5.278h4.713a8.881,8.881,0,0,1,8.872,8.871v6.7a8.882,8.882,0,0,1-8.872,8.879h-4.8a5.274,5.274,0,0,0-5.27,5.006,55.351,55.351,0,0,1-34.416,48.359l-.278.121a55.612,55.612,0,0,1-41.155-.035c-.1-.043-.206-.086-.313-.122a55.247,55.247,0,0,1-34.309-48.322,5.272,5.272,0,0,0-5.27-5.006h-4.8a8.888,8.888,0,0,1-8.876-8.879Zm8.857,26.129a65.66,65.66,0,0,0,24.487,43.238H4190.3a17.8,17.8,0,0,1-17.772-17.778v-28.669a19.366,19.366,0,0,0,10.657,3.209" transform="translate(-0.001 0)"/>
  </g>
</svg>
