<svg xmlns="http://www.w3.org/2000/svg" width="210" height="96" viewBox="0 0 210 96">
  <g id="Payment_3" data-name="Payment 3" transform="translate(-0.484 -0.411)">
    <rect id="Rectangle_725" data-name="Rectangle 725" width="210" height="96" rx="6" transform="translate(0.484 0.411)" fill="#fff"/>
    <g id="Group_322" data-name="Group 322" transform="translate(64.635 36.383)">
      <path id="Path_221" data-name="Path 221" d="M79.18,58.3c-4.725,3.494-11.6,5.355-17.526,5.355A31.777,31.777,0,0,1,40.234,55.5c-.43-.4-.057-.945.487-.63a43.044,43.044,0,0,0,21.421,5.67,42.62,42.62,0,0,0,16.352-3.351C79.295,56.87,79.982,57.729,79.18,58.3Z" transform="translate(-28.578 -39.086)" fill="#bce0fd" fill-rule="evenodd"/>
      <path id="Path_222" data-name="Path 222" d="M168.844,54.026c-.6-.773-4.009-.372-5.527-.172-.458.057-.544-.344-.115-.63,2.721-1.919,7.159-1.346,7.675-.716s-.143,5.1-2.692,7.217c-.4.315-.773.143-.6-.286C168.157,57.978,169.446,54.8,168.844,54.026Z" transform="translate(-116.266 -37.044)" fill="#bce0fd" fill-rule="evenodd"/>
      <path id="Path_223" data-name="Path 223" d="M163.387,3.62V1.758a.436.436,0,0,1,.458-.458h8.3a.477.477,0,0,1,.487.458V3.333c0,.258-.229.6-.63,1.174l-4.3,6.128a9.33,9.33,0,0,1,4.725,1,.853.853,0,0,1,.43.716V14.33c0,.286-.286.6-.6.43a9.474,9.474,0,0,0-8.763.029.45.45,0,0,1-.6-.43v-1.89a2.14,2.14,0,0,1,.315-1.26l5.012-7.131H163.9A.5.5,0,0,1,163.387,3.62Z" transform="translate(-116.25 -0.928)" fill="#2699fb" fill-rule="evenodd"/>
      <path id="Path_224" data-name="Path 224" d="M51.478,14.618h-2.52a.517.517,0,0,1-.458-.43V1.245a.477.477,0,0,1,.487-.458h2.348a.467.467,0,0,1,.458.43v1.69h.057a3.457,3.457,0,0,1,6.587,0A3.589,3.589,0,0,1,61.931.5a3.55,3.55,0,0,1,2.921,1.432c.8,1.088.63,2.663.63,4.066v8.19a.477.477,0,0,1-.487.458h-2.52a.492.492,0,0,1-.458-.458V7.316a17.177,17.177,0,0,0-.057-2.434A1.329,1.329,0,0,0,60.47,3.765a1.686,1.686,0,0,0-1.518,1.06,7.935,7.935,0,0,0-.229,2.491v6.873a.477.477,0,0,1-.487.458h-2.52a.492.492,0,0,1-.458-.458V7.316c0-1.432.229-3.58-1.546-3.58-1.8,0-1.747,2.062-1.747,3.58v6.873A.475.475,0,0,1,51.478,14.618Z" transform="translate(-34.611 -0.357)" fill="#2699fb" fill-rule="evenodd"/>
      <path id="Path_225" data-name="Path 225" d="M207.7.4c3.751,0,5.756,3.236,5.756,7.331,0,3.952-2.234,7.1-5.785,7.1C204,14.8,202,11.6,202,7.588,202,3.55,204.033.4,207.7.4Zm.029,2.663c-1.861,0-1.976,2.549-1.976,4.124s-.029,4.954,1.947,4.954c1.947,0,2.062-2.721,2.062-4.382a12.531,12.531,0,0,0-.372-3.436A1.6,1.6,0,0,0,207.727,3.063Z" transform="translate(-144.153 -0.285)" fill="#2699fb" fill-rule="evenodd"/>
      <path id="Path_226" data-name="Path 226" d="M251.578,14.618h-2.52a.492.492,0,0,1-.458-.458V1.187a.5.5,0,0,1,.487-.43h2.348a.49.49,0,0,1,.458.372V3.106h.057C252.667,1.33,253.64.5,255.387.5a3.335,3.335,0,0,1,2.95,1.518C259,3.049,259,4.8,259,6.056v8.162a.471.471,0,0,1-.487.4h-2.52a.521.521,0,0,1-.458-.4V7.172c0-1.432.172-3.494-1.575-3.494a1.658,1.658,0,0,0-1.461,1.031,5.945,5.945,0,0,0-.4,2.463V14.16A.527.527,0,0,1,251.578,14.618Z" transform="translate(-177.408 -0.357)" fill="#2699fb" fill-rule="evenodd"/>
      <path id="Path_227" data-name="Path 227" d="M122.946,8.047a5.12,5.12,0,0,1-.458,2.692,2.027,2.027,0,0,1-1.747,1.145c-.974,0-1.546-.745-1.546-1.833,0-2.148,1.919-2.549,3.751-2.549Zm2.549,6.157a.518.518,0,0,1-.6.057,6.324,6.324,0,0,1-1.461-1.69A5.017,5.017,0,0,1,119.28,14.4a3.587,3.587,0,0,1-3.78-3.923,4.287,4.287,0,0,1,2.692-4.124,17.879,17.879,0,0,1,4.754-.888V5.155a3.093,3.093,0,0,0-.315-1.833,1.7,1.7,0,0,0-1.4-.659,1.907,1.907,0,0,0-2.033,1.518c-.057.229-.2.458-.43.458l-2.434-.258a.441.441,0,0,1-.372-.515C116.5.888,119.194,0,121.6,0a5.668,5.668,0,0,1,3.809,1.26c1.231,1.145,1.117,2.692,1.117,4.353V9.536a3.548,3.548,0,0,0,.945,2.348c.172.229.2.515,0,.659-.544.43-1.46,1.231-1.976,1.661Z" transform="translate(-82.424)" fill="#2699fb" fill-rule="evenodd"/>
      <path id="Path_228" data-name="Path 228" d="M7.446,8.047a5.12,5.12,0,0,1-.458,2.692,2.027,2.027,0,0,1-1.747,1.145c-.974,0-1.546-.745-1.546-1.833C3.694,7.9,5.613,7.5,7.446,7.5ZM9.994,14.2a.518.518,0,0,1-.6.057,6.324,6.324,0,0,1-1.461-1.69A5.017,5.017,0,0,1,3.78,14.4,3.558,3.558,0,0,1,0,10.481,4.287,4.287,0,0,1,2.692,6.357,17.879,17.879,0,0,1,7.446,5.47V5.155a3.093,3.093,0,0,0-.315-1.833,1.671,1.671,0,0,0-1.4-.63A1.907,1.907,0,0,0,3.694,4.21c-.057.229-.2.458-.43.458L.83,4.41a.441.441,0,0,1-.372-.515C.974.888,3.666,0,6.071,0A5.668,5.668,0,0,1,9.88,1.26C11.111,2.406,11,3.952,11,5.613V9.536a3.548,3.548,0,0,0,.945,2.348c.172.229.2.515,0,.659-.544.43-1.461,1.231-1.947,1.661Z" fill="#2699fb" fill-rule="evenodd"/>
    </g>
  </g>
</svg>
