<svg xmlns="http://www.w3.org/2000/svg" width="210" height="96" viewBox="0 0 210 96">
  <g id="Payment_2" data-name="Payment 2" transform="translate(-0.242 -0.411)">
    <rect id="Rectangle_724" data-name="Rectangle 724" width="210" height="96" rx="6" transform="translate(0.242 0.411)" fill="#fff"/>
    <g id="Group_324" data-name="Group 324" transform="translate(58.343 37.192)">
      <path id="XMLID_15_" d="M135.939,29c-.278,1.881-1.71,1.881-3.1,1.881h-.791l.556-3.506a.435.435,0,0,1,.428-.363h.363c.941,0,1.839,0,2.288.535A1.711,1.711,0,0,1,135.939,29Zm-.6-4.9h-5.217a.735.735,0,0,0-.727.62L127.28,38.1a.433.433,0,0,0,.428.492h2.5a.735.735,0,0,0,.727-.62l.577-3.613a.729.729,0,0,1,.706-.62h1.646c3.442,0,5.431-1.668,5.944-4.96a4.1,4.1,0,0,0-.663-3.378A5.011,5.011,0,0,0,135.34,24.1Z" transform="translate(-100.054 -18.947)" fill="#2699fb"/>
      <path id="XMLID_12_" d="M191.086,50.689a2.781,2.781,0,0,1-2.822,2.395,2.128,2.128,0,0,1-1.689-.684,2.1,2.1,0,0,1-.385-1.753,2.811,2.811,0,0,1,2.8-2.416,2.112,2.112,0,0,1,1.668.684A2.2,2.2,0,0,1,191.086,50.689Zm3.485-4.853h-2.5a.419.419,0,0,0-.428.363l-.107.706-.171-.257a3.537,3.537,0,0,0-2.951-1.048,5.745,5.745,0,0,0-5.58,5.024,4.759,4.759,0,0,0,.941,3.849,3.92,3.92,0,0,0,3.143,1.261A4.8,4.8,0,0,0,190.38,54.3l-.107.684a.451.451,0,0,0,.428.513h2.245a.735.735,0,0,0,.727-.62l1.347-8.552A.462.462,0,0,0,194.571,45.835Z" transform="translate(-143.676 -35.851)" fill="#2699fb"/>
      <path id="XMLID_11_" d="M257.407,46.7h-2.5a.74.74,0,0,0-.6.321l-3.464,5.089-1.475-4.9a.738.738,0,0,0-.706-.513H246.2a.43.43,0,0,0-.406.577l2.758,8.125-2.608,3.677a.43.43,0,0,0,.364.684h2.5a.688.688,0,0,0,.6-.321l8.36-12.059A.435.435,0,0,0,257.407,46.7Z" transform="translate(-193.214 -36.715)" fill="#2699fb"/>
      <path id="XMLID_8_" d="M310.118,29c-.278,1.881-1.71,1.881-3.1,1.881h-.791l.556-3.506a.435.435,0,0,1,.428-.363h.363c.941,0,1.839,0,2.288.535A1.711,1.711,0,0,1,310.118,29Zm-.6-4.9H304.3a.7.7,0,0,0-.706.62L301.48,38.1a.433.433,0,0,0,.428.492h2.673a.472.472,0,0,0,.492-.428l.6-3.784a.73.73,0,0,1,.706-.62h1.646c3.442,0,5.431-1.668,5.944-4.96a4.1,4.1,0,0,0-.663-3.378A4.789,4.789,0,0,0,309.519,24.1Z" transform="translate(-237.009 -18.947)" fill="#2699fb"/>
      <path id="XMLID_5_" d="M365.186,50.689a2.781,2.781,0,0,1-2.822,2.395,2.128,2.128,0,0,1-1.689-.684,2.1,2.1,0,0,1-.385-1.753,2.809,2.809,0,0,1,2.8-2.395,1.987,1.987,0,0,1,2.1,2.437Zm3.485-4.853h-2.5a.419.419,0,0,0-.428.363l-.107.706-.171-.257a3.537,3.537,0,0,0-2.951-1.048,5.746,5.746,0,0,0-5.58,5.024,4.759,4.759,0,0,0,.941,3.849,3.92,3.92,0,0,0,3.143,1.261A4.8,4.8,0,0,0,364.48,54.3l-.107.684a.451.451,0,0,0,.428.513h2.245a.7.7,0,0,0,.706-.62l1.347-8.552A.422.422,0,0,0,368.671,45.835Z" transform="translate(-280.553 -35.851)" fill="#2699fb"/>
      <path id="XMLID_4_" d="M418.018,24.385,415.88,38.026a.433.433,0,0,0,.428.492h2.159a.735.735,0,0,0,.727-.62l2.117-13.384a.451.451,0,0,0-.428-.513h-2.416A.461.461,0,0,0,418.018,24.385Z" transform="translate(-326.949 -18.869)" fill="#2699fb"/>
      <path id="XMLID_3_" d="M35.031,27.4c-.021.128-.043.278-.064.428-.962,4.832-4.191,6.5-8.317,6.5h-2.1a1.013,1.013,0,0,0-1,.855L22.481,42l-.3,1.924a.54.54,0,0,0,.535.62h3.7a.878.878,0,0,0,.877-.748l.043-.192.706-4.447.043-.235a.894.894,0,0,1,.877-.748h.556c3.613,0,6.436-1.475,7.269-5.709.342-1.775.171-3.25-.748-4.3A3.386,3.386,0,0,0,35.031,27.4Z" transform="translate(-17.426 -21.542)" fill="#bce0fd"/>
      <path id="XMLID_2_" d="M39.1,24.321a3.417,3.417,0,0,0-.449-.107,3.626,3.626,0,0,0-.47-.086A12.5,12.5,0,0,0,36.318,24h-5.6a.783.783,0,0,0-.385.086.881.881,0,0,0-.492.663l-1.2,7.569-.043.214a1.03,1.03,0,0,1,1-.855h2.1c4.126,0,7.355-1.668,8.3-6.521.021-.15.043-.278.064-.428a4.154,4.154,0,0,0-.77-.321A.759.759,0,0,0,39.1,24.321Z" transform="translate(-22.476 -18.869)" fill="#7fc4fd"/>
      <path id="XMLID_1_" d="M7.3,5.88a.881.881,0,0,1,.492-.663.839.839,0,0,1,.385-.086h5.6a12.71,12.71,0,0,1,1.86.128c.171.021.321.064.47.086.15.043.3.064.449.107.064.021.15.043.214.064a4.153,4.153,0,0,1,.77.321,4.567,4.567,0,0,0-.962-4.105C15.512.513,13.587,0,11.129,0H3.966a1,1,0,0,0-1,.855L-.032,19.777a.614.614,0,0,0,.6.706H4.992L6.1,13.448Z" transform="translate(0.041 0)" fill="#2699fb"/>
    </g>
  </g>
</svg>
