<svg xmlns="http://www.w3.org/2000/svg" width="115" height="55" viewBox="0 0 115 55">
  <g id="Input" transform="translate(0.24 -0.12)">
    <g id="Rectangle_721" data-name="Rectangle 721" transform="translate(-0.24 0.12)" fill="#fff" stroke="#bce0fd" stroke-width="1">
      <rect width="115" height="55" rx="4" stroke="none"/>
      <rect x="0.5" y="0.5" width="114" height="54" rx="3.5" fill="none"/>
    </g>
    <g id="Group_323" data-name="Group 323" transform="translate(21.897 17.287)">
      <path id="Path_229" data-name="Path 229" d="M61.9,22.107,65.516.9h5.769L67.669,22.107Z" transform="translate(-36.753 -0.534)" fill="#2699fb"/>
      <path id="Path_230" data-name="Path 230" d="M102.347.894A14.385,14.385,0,0,0,97.188,0c-5.728,0-9.75,2.884-9.75,6.988-.041,3.047,2.884,4.753,5.078,5.769,2.234,1.056,3.006,1.706,3.006,2.641,0,1.422-1.788,2.072-3.453,2.072a12.426,12.426,0,0,1-5.444-1.1l-.812-.366L85,20.76A18.255,18.255,0,0,0,91.459,21.9c6.094,0,10.035-2.844,10.075-7.231.041-2.4-1.5-4.266-4.834-5.769-2.031-.975-3.25-1.625-3.25-2.641,0-.894,1.056-1.828,3.291-1.828a10,10,0,0,1,4.306.813l.528.244.772-4.591" transform="translate(-50.468 0)" fill="#2699fb"/>
      <path id="Path_231" data-name="Path 231" d="M140.688,1h-4.469a2.9,2.9,0,0,0-3.047,1.747L124.6,22.166h6.053s.975-2.6,1.219-3.169h7.394c.163.731.691,3.169.691,3.169h5.363L140.688,1m-7.109,13.65c.487-1.219,2.316-5.931,2.316-5.931-.041.041.488-1.219.772-2.031l.406,1.828s1.1,5.078,1.341,6.134Z" transform="translate(-73.98 -0.594)" fill="#2699fb"/>
      <path id="Path_232" data-name="Path 232" d="M29.16.9,23.472,15.363l-.609-2.925c-1.016-3.372-4.306-7.069-7.963-8.9l5.159,18.566h6.134L35.294.9H29.16" transform="translate(-8.847 -0.534)" fill="#2699fb"/>
      <path id="Path_233" data-name="Path 233" d="M9.385.9H.081L0,1.347C7.272,3.094,12.066,7.359,14.056,12.438l-2.031-9.75A2.444,2.444,0,0,0,9.385.9" transform="translate(0 -0.534)" fill="#bce0fd"/>
    </g>
  </g>
</svg>
